fontCallback.success({"glyphs":{"ο":{"x_min":5,"x_max":726,"ha":781,"o":"m 391 688 q 632 615 538 688 q 726 397 726 542 q 610 107 726 233 q 334 -18 494 -18 q 95 53 185 -18 q 5 272 5 125 q 11 350 5 314 q 45 460 17 386 q 173 611 73 535 q 391 688 273 688 m 212 196 q 234 94 212 139 q 306 49 257 49 q 462 201 411 49 q 513 489 513 353 q 490 585 513 543 q 417 627 468 627 q 293 535 329 627 q 241 381 257 444 q 218 280 225 318 q 212 196 212 242 "},"S":{"x_min":-36,"x_max":692.5625,"ha":692,"o":"m 27 284 l 41 277 q 115 125 64 179 q 262 71 166 71 q 372 105 325 71 q 420 200 420 139 q 337 337 420 265 q 177 478 255 409 q 93 666 93 568 q 190 871 93 794 q 416 949 287 949 q 553 933 485 949 q 692 886 621 917 q 657 790 675 844 q 630 704 639 735 l 614 707 q 548 821 596 779 q 427 863 499 863 q 328 831 370 863 q 287 743 287 799 q 368 600 287 668 q 529 468 449 532 q 614 284 614 384 q 509 64 614 145 q 261 -17 405 -17 q -36 61 98 -17 q 27 284 -1 162 "},"/":{"x_min":-44.03125,"x_max":439.4375,"ha":385,"o":"m -44 -123 l 360 1026 l 439 1025 l 35 -124 l -44 -123 "},"Τ":{"x_min":53,"x_max":809.9375,"ha":696,"o":"m 264 573 l 310 828 q 177 823 266 828 q 53 818 87 818 q 69 877 64 837 q 75 932 75 916 q 249 927 122 932 q 440 922 376 922 q 633 927 504 922 q 809 932 762 932 q 796 895 801 915 q 789 855 790 874 l 789 815 q 548 828 669 828 q 448 420 490 633 q 384 0 407 208 q 315 6 353 2 q 257 10 278 10 q 188 5 226 10 q 129 0 150 1 q 198 256 168 126 q 264 573 228 386 "},"ϕ":{"x_min":5,"x_max":969,"ha":1032,"o":"m 5 275 q 134 567 5 468 q 460 667 264 667 q 510 976 491 816 l 589 969 q 663 972 613 969 q 718 976 713 976 l 680 818 l 643 657 q 875 569 781 644 q 969 361 969 493 q 837 77 969 173 q 514 -18 706 -18 q 475 -202 495 -105 q 455 -374 455 -298 l 374 -365 q 246 -373 311 -365 q 330 -7 295 -181 q 102 70 199 -7 q 5 275 5 147 m 527 56 q 712 166 659 56 q 765 428 765 276 q 729 533 765 490 q 630 591 694 575 l 527 56 m 448 591 l 417 591 q 256 474 306 591 q 206 228 206 358 q 342 60 206 93 l 448 591 "},"y":{"x_min":-129,"x_max":657.125,"ha":603,"o":"m -30 -363 q -70 -366 -49 -363 q -129 -373 -91 -368 q -40 -268 -74 -312 q 30 -162 -6 -223 l 123 -11 q 93 242 105 154 q 65 428 82 330 q 17 667 48 525 l 129 659 q 190 661 156 659 q 255 666 225 664 q 264 480 255 569 q 293 264 274 391 l 392 429 q 445 527 421 479 q 511 666 469 576 l 573 659 q 614 661 590 659 q 657 666 639 664 q 405 271 486 399 q 224 -29 323 142 q 42 -373 125 -201 q 5 -366 22 -369 q -30 -363 -12 -363 "},"Π":{"x_min":0,"x_max":1025,"ha":1025,"o":"m 638 205 l 716 577 q 736 675 729 639 q 761 814 742 710 l 579 819 l 406 815 l 356 608 l 280 237 q 261 118 270 190 q 247 0 251 46 q 174 7 205 4 q 122 10 143 10 q 55 5 91 10 q 0 0 19 1 q 84 343 51 204 q 144 629 116 483 q 188 932 172 776 q 415 927 272 932 q 601 922 559 922 q 823 927 675 922 q 1025 932 972 932 q 945 621 984 783 q 877 299 906 459 q 833 0 848 138 q 767 6 802 2 q 711 9 731 9 q 644 5 681 9 q 587 0 606 1 l 638 205 "},"ΐ":{"x_min":-11,"x_max":625,"ha":393,"o":"m 129 667 q 244 660 189 660 q 305 663 266 660 q 351 667 343 667 q 271 333 304 490 q 212 0 239 176 l 109 5 q 41 2 89 5 q -9 0 -6 0 q 69 351 32 176 q 129 667 107 526 m 71 963 q 128 939 104 963 q 152 881 152 915 q 131 821 152 845 q 73 798 110 798 q 14 821 39 798 q -11 881 -11 845 q 13 938 -11 914 q 71 963 37 963 m 167 757 l 276 930 q 324 995 304 973 q 376 1018 344 1018 q 427 966 427 1018 q 413 923 427 944 q 376 886 398 902 l 221 757 l 167 757 m 544 963 q 601 939 577 963 q 625 881 625 915 q 603 823 625 849 q 547 798 581 798 q 488 822 515 798 q 461 881 461 846 q 484 939 461 915 q 544 963 508 963 "},"g":{"x_min":-94,"x_max":707.390625,"ha":707,"o":"m 108 37 q 52 74 74 48 q 30 134 30 101 q 72 220 30 191 q 178 262 114 249 l 178 273 q 82 336 118 295 q 46 434 46 376 q 134 613 46 548 q 340 679 222 679 q 432 676 386 679 q 544 670 479 673 q 640 674 580 670 q 707 679 699 679 q 694 641 699 658 q 687 600 690 624 l 562 606 q 630 472 630 552 q 534 301 630 359 q 317 243 438 243 l 298 243 q 245 248 281 243 q 206 235 223 248 q 190 200 190 222 q 324 133 190 157 q 532 76 459 108 q 606 -63 606 44 q 485 -292 606 -209 q 211 -375 364 -375 q 0 -323 93 -375 q -94 -162 -94 -272 q -37 -34 -94 -80 q 107 27 18 11 l 108 37 m 239 405 q 256 334 239 362 q 314 306 273 306 q 408 376 380 306 q 436 522 436 447 q 417 592 436 563 q 360 622 398 622 q 290 586 311 622 q 248 487 268 551 q 239 405 243 445 m 46 -152 q 97 -262 46 -222 q 221 -303 148 -303 q 365 -262 300 -303 q 431 -144 431 -221 q 352 -29 431 -52 q 153 -5 274 -5 q 75 -64 104 -27 q 46 -152 46 -101 "},"²":{"x_min":-39,"x_max":464,"ha":493,"o":"m -27 397 q 229 593 144 517 q 314 768 314 669 q 295 829 314 804 q 239 855 276 855 q 176 819 195 855 q 151 734 156 784 l 146 727 q 108 761 121 748 q 63 807 95 774 q 259 901 140 901 q 401 868 338 901 q 464 764 464 836 q 343 579 464 658 q 151 457 223 501 q 305 460 208 457 q 422 464 402 464 q 393 356 401 411 l 247 356 q 104 356 200 356 q -39 356 8 356 q -27 397 -27 374 "},"Κ":{"x_min":0,"x_max":943.0625,"ha":813,"o":"m 376 705 l 336 504 l 519 670 q 630 776 581 723 q 768 932 679 829 l 850 925 q 900 927 880 925 q 943 932 919 929 l 940 918 q 776 770 866 852 q 640 646 686 688 q 506 516 594 604 q 663 198 581 358 l 768 0 q 704 4 747 0 q 637 8 661 8 q 570 4 616 8 q 501 0 524 0 q 406 227 443 143 q 316 406 369 312 l 286 268 q 245 0 259 127 q 172 7 204 4 q 119 10 140 10 q 55 5 91 10 q 0 0 19 1 q 84 315 40 150 q 157 643 127 481 q 187 931 187 805 q 250 926 204 930 q 311 922 295 922 q 381 926 341 922 q 434 932 420 930 q 402 830 413 877 q 376 705 390 783 "},"ë":{"x_min":3,"x_max":675,"ha":714,"o":"m 336 -18 q 100 60 197 -18 q 3 274 3 138 q 118 562 3 441 q 400 683 233 683 q 594 618 522 683 q 667 432 667 553 q 662 372 667 402 q 655 325 658 342 l 401 325 l 222 325 q 222 299 222 313 q 222 277 222 285 l 222 260 q 272 124 222 172 q 410 76 323 76 q 606 146 515 76 l 622 127 q 569 32 589 73 q 336 -18 451 -18 m 326 974 q 392 946 364 974 q 420 877 420 918 q 393 811 420 839 q 326 784 367 784 q 259 811 287 784 q 231 877 231 838 q 258 946 231 918 q 326 974 286 974 m 580 974 q 647 946 619 974 q 675 877 675 918 q 647 811 675 838 q 581 784 620 784 q 514 811 542 784 q 486 877 486 838 q 513 946 486 918 q 580 974 541 974 m 365 394 l 461 399 q 477 513 477 448 q 455 588 477 554 q 397 622 433 622 q 294 555 329 622 q 239 398 259 489 l 365 394 "},"e":{"x_min":3,"x_max":667,"ha":714,"o":"m 337 -18 q 100 60 197 -18 q 3 275 3 139 q 118 564 3 443 q 400 685 233 685 q 594 620 522 685 q 667 432 667 555 q 655 325 667 382 l 402 325 l 226 325 l 222 260 q 273 124 222 173 q 413 76 324 76 q 514 94 464 76 q 608 147 564 112 l 623 127 q 572 32 591 79 q 455 -5 511 7 q 337 -18 400 -18 m 365 394 l 463 399 q 472 455 468 422 q 477 514 477 487 q 455 589 477 554 q 396 624 433 624 q 291 555 328 624 q 239 399 255 487 q 314 396 271 399 q 365 394 358 394 "},"ό":{"x_min":5,"x_max":732.765625,"ha":781,"o":"m 391 688 q 632 615 538 688 q 726 397 726 542 q 610 107 726 233 q 334 -18 494 -18 q 95 53 185 -18 q 5 272 5 125 q 11 350 5 314 q 45 460 17 386 q 173 611 73 535 q 391 688 273 688 m 373 757 l 577 970 q 619 1004 598 991 q 664 1018 641 1018 q 711 994 691 1018 q 732 945 732 970 q 716 906 732 922 q 672 873 700 890 l 438 757 l 373 757 m 212 196 q 234 94 212 139 q 306 49 257 49 q 462 201 411 49 q 513 489 513 353 q 490 585 513 543 q 417 627 468 627 q 293 535 329 627 q 241 381 257 444 q 218 280 225 318 q 212 196 212 242 "},"J":{"x_min":-172.21875,"x_max":443.0625,"ha":456,"o":"m -172 -150 q -90 -141 -131 -150 q 12 -60 -16 -123 q 90 254 41 2 l 134 500 q 175 736 159 632 q 190 932 190 840 q 256 926 220 929 q 320 923 293 923 q 380 926 347 923 q 443 931 413 929 q 386 711 413 838 q 336 463 358 584 q 284 163 315 341 q 167 -119 254 -13 q -140 -225 80 -225 q -157 -190 -150 -209 q -172 -150 -165 -172 "},"»":{"x_min":-23,"x_max":612,"ha":696,"o":"m 8 0 q -4 24 2 13 q -23 47 -11 35 q 76 181 29 129 q 199 314 122 233 q 89 619 128 464 q 113 640 100 626 q 138 667 125 654 q 223 489 177 579 q 327 304 270 398 q 168 155 256 238 q 8 0 81 72 m 293 0 q 279 24 286 12 q 260 47 272 35 q 358 175 297 105 q 484 314 418 245 q 418 467 446 391 q 375 619 390 542 q 398 640 385 626 q 421 667 411 654 q 612 304 514 469 q 508 206 582 276 q 396 101 434 137 q 293 0 358 65 "},"©":{"x_min":72,"x_max":1064,"ha":1138,"o":"m 1064 487 q 918 140 1064 287 q 572 -6 773 -6 q 221 140 370 -6 q 72 490 72 287 q 220 837 72 690 q 569 985 369 985 q 917 836 770 985 q 1064 487 1064 688 m 155 491 q 276 199 155 323 q 567 75 398 75 q 858 197 734 75 q 982 488 982 319 q 861 781 982 659 q 569 904 740 904 q 277 781 399 904 q 155 491 155 659 m 684 598 q 650 668 684 639 q 574 697 617 697 q 470 638 501 697 q 439 499 439 579 q 468 355 439 422 q 563 289 497 289 q 687 398 667 289 l 815 398 q 737 248 806 304 q 572 192 669 192 q 376 275 450 192 q 303 482 303 358 q 372 695 303 604 q 559 786 441 786 q 725 735 653 786 q 810 598 797 685 l 684 598 "},"ώ":{"x_min":5,"x_max":1055,"ha":1118,"o":"m 248 -14 q 70 50 136 -14 q 5 226 5 115 q 75 466 5 347 q 250 668 145 584 q 300 665 266 668 q 353 662 335 662 q 416 665 393 662 q 449 668 438 668 q 273 436 338 562 q 209 172 209 311 q 227 87 209 123 q 288 51 245 51 q 409 186 377 51 q 460 514 440 322 l 571 508 l 684 514 q 632 337 652 418 q 600 168 613 256 l 599 132 l 600 96 q 649 51 610 55 q 794 169 753 51 q 836 420 836 288 q 817 543 836 486 q 760 668 798 601 q 812 663 802 663 q 852 662 823 662 q 905 665 870 662 q 957 668 939 668 q 1029 551 1003 611 q 1055 426 1055 491 q 945 121 1055 256 q 673 -14 836 -14 q 555 13 606 -14 q 482 101 503 41 q 380 16 443 46 q 248 -14 317 -14 m 545 758 l 749 971 q 793 1006 771 994 q 838 1019 814 1019 q 884 995 863 1019 q 905 946 905 971 q 889 907 905 923 q 846 874 873 891 l 612 758 l 545 758 "},"^":{"x_min":32,"x_max":458,"ha":393,"o":"m 401 756 l 279 886 l 101 756 l 32 756 l 238 1003 l 351 1003 l 458 756 l 401 756 "},"«":{"x_min":30,"x_max":664.71875,"ha":696,"o":"m 348 668 q 364 635 362 639 q 381 621 366 632 q 279 490 341 561 q 156 354 218 419 q 220 197 196 261 q 266 47 243 133 q 243 26 255 38 q 220 0 231 13 q 129 182 173 97 q 30 363 85 267 q 184 507 106 433 q 348 668 262 582 m 631 668 q 664 621 643 641 q 566 488 623 554 q 440 354 509 422 q 500 209 473 284 q 550 47 527 134 q 528 27 539 38 q 503 0 517 16 q 408 195 448 117 q 314 363 368 273 q 631 668 472 507 "},"D":{"x_min":-4,"x_max":999,"ha":1038,"o":"m 183 932 q 255 925 237 926 q 296 925 273 925 q 440 928 353 925 q 541 932 528 932 q 871 849 744 932 q 999 575 999 766 q 818 149 999 298 q 353 0 637 0 q 237 5 315 0 q 132 10 159 10 q -4 0 62 10 q 80 329 46 183 q 141 624 115 474 q 183 932 168 773 m 340 86 q 649 219 537 86 q 761 552 761 352 q 690 769 761 691 q 482 846 619 846 l 409 842 q 319 466 359 658 q 255 94 279 273 q 305 88 276 91 q 340 86 333 86 "},"w":{"x_min":22,"x_max":1076.171875,"ha":1021,"o":"m 22 667 l 138 661 l 247 667 q 253 473 247 562 q 276 228 259 384 q 494 667 387 435 l 584 661 l 669 667 l 683 382 l 694 228 l 819 464 q 863 546 847 514 q 920 667 880 579 l 999 661 l 1076 667 q 859 339 959 505 q 677 0 759 172 l 594 5 l 512 0 q 508 171 512 104 q 487 417 503 239 q 375 220 431 325 q 263 0 319 115 l 198 4 l 81 0 q 66 320 81 159 q 22 667 51 480 "},"$":{"x_min":-1,"x_max":735.109375,"ha":749,"o":"m -1 86 q 35 177 18 132 q 68 271 53 222 l 93 265 q 137 134 93 187 q 259 64 181 82 l 323 368 q 150 495 196 433 q 105 626 105 557 q 200 836 105 765 q 440 907 296 907 q 454 1017 447 961 l 500 1017 l 550 1017 l 521 901 q 735 820 637 883 q 704 758 714 783 q 670 666 693 733 l 639 666 q 593 773 626 728 q 504 832 560 819 l 441 540 q 607 425 544 490 q 670 263 670 359 q 569 50 670 122 q 324 -20 468 -20 q 299 -165 307 -88 l 250 -165 l 204 -165 q 219 -117 214 -135 q 245 -11 224 -99 q 119 14 181 -11 q -1 86 57 40 m 481 205 q 457 279 481 247 q 394 330 434 311 l 335 64 q 437 105 394 64 q 481 205 481 147 m 430 835 q 322 799 368 835 q 277 701 277 764 q 306 629 277 663 q 376 577 335 596 l 430 835 "},"\\":{"x_min":61.015625,"x_max":324.015625,"ha":385,"o":"m 247 -123 l 61 1026 l 137 1026 l 324 -124 l 247 -123 "},"Ι":{"x_min":8.328125,"x_max":451.390625,"ha":458,"o":"m 261 0 q 196 4 248 0 q 122 9 144 9 q 55 5 88 9 q 8 0 22 1 q 93 324 52 162 q 159 632 133 487 q 198 932 186 776 q 270 925 238 928 q 323 922 301 922 q 393 926 354 922 q 451 932 431 930 q 336 485 387 744 q 261 0 284 226 "},"Ύ":{"x_min":-44,"x_max":1217.109375,"ha":1108,"o":"m 535 80 l 574 259 l 601 391 q 531 667 568 536 q 444 932 493 798 q 506 926 474 929 q 566 924 538 924 q 631 926 595 924 q 700 931 667 929 q 793 540 734 729 q 930 727 865 630 q 1058 931 995 823 q 1105 926 1078 929 q 1139 924 1132 924 q 1176 926 1156 924 q 1217 931 1196 929 q 829 405 1010 672 l 797 267 q 766 108 775 160 q 757 0 757 56 q 692 6 726 2 q 637 10 658 10 q 571 5 608 10 q 514 0 533 1 l 535 80 m -44 756 l 160 970 q 203 1004 181 991 q 247 1018 225 1018 q 295 994 274 1018 q 316 945 316 970 q 300 906 316 922 q 257 873 284 890 l 23 756 l -44 756 "},"Ν":{"x_min":6.9375,"x_max":1033.328125,"ha":1038,"o":"m 194 946 l 265 938 q 341 941 317 938 q 379 946 365 944 q 467 795 399 911 q 560 640 536 680 q 652 493 584 600 l 780 281 l 841 615 q 895 931 872 766 l 962 925 q 1003 927 984 925 q 1033 931 1022 930 q 977 724 1002 827 q 927 501 952 620 l 858 159 l 825 -14 l 752 -5 q 714 -8 737 -5 q 673 -14 691 -11 q 533 237 605 109 q 404 458 461 364 q 263 678 347 551 l 208 384 q 151 -1 173 170 q 107 5 126 2 q 76 8 88 8 q 38 4 59 8 q 6 -1 18 0 q 123 473 73 227 q 194 946 172 718 "},"-":{"x_min":4.171875,"x_max":405.5625,"ha":444,"o":"m 37 425 l 198 418 q 319 421 245 418 q 405 425 393 425 q 383 332 391 374 q 370 244 375 289 q 284 249 354 244 q 180 255 213 255 q 91 249 152 255 q 4 244 30 244 q 24 332 16 288 q 37 425 31 376 "},"Q":{"x_min":36,"x_max":1080,"ha":1117,"o":"m 412 -9 q 137 120 238 13 q 36 402 36 227 q 195 789 36 628 q 578 951 355 951 q 938 854 796 951 q 1080 548 1080 758 q 966 202 1080 359 q 672 4 853 45 q 792 -44 736 -22 q 913 -88 849 -66 l 1051 -134 l 1048 -158 q 974 -219 1009 -186 q 905 -295 939 -252 q 674 -156 805 -231 q 412 -9 542 -80 m 282 360 q 336 156 282 237 q 511 75 390 75 q 758 230 677 75 q 840 570 840 385 q 782 777 840 692 q 608 862 724 862 q 402 757 479 862 q 303 546 325 653 q 282 360 282 438 "},"ς":{"x_min":9,"x_max":653.671875,"ha":707,"o":"m 403 616 q 262 547 317 616 q 208 388 208 478 q 307 240 208 288 q 496 174 402 207 q 598 35 598 129 q 534 -123 598 -59 q 404 -238 471 -187 l 352 -191 q 416 -128 395 -152 q 437 -69 437 -103 q 410 -23 437 -41 q 348 3 384 -5 q 96 119 184 55 q 9 319 9 183 q 121 585 9 483 q 399 688 234 688 q 524 670 461 688 q 653 621 587 652 q 618 545 638 593 q 587 466 598 497 l 569 466 q 513 578 549 541 q 403 616 477 616 "},"M":{"x_min":-11.109375,"x_max":1213.890625,"ha":1231,"o":"m 222 932 q 265 926 240 929 q 309 923 291 923 q 348 926 326 923 q 391 932 370 929 q 480 610 436 761 q 579 310 525 460 l 866 698 l 1033 932 q 1090 926 1061 929 q 1123 923 1119 923 q 1169 927 1138 923 q 1213 932 1200 932 q 1138 598 1168 740 q 1085 307 1109 457 q 1047 0 1061 157 l 962 8 q 881 6 913 8 q 809 0 848 5 q 859 239 833 93 q 890 413 886 386 l 919 590 q 702 297 808 448 q 497 -11 597 147 l 415 -11 q 344 289 383 141 q 256 597 305 437 q 195 304 226 463 q 140 0 163 144 q 101 4 127 0 q 62 8 74 8 q 26 5 45 8 q -11 0 6 2 q 222 932 116 459 "},"Ψ":{"x_min":80,"x_max":1168.890625,"ha":1143,"o":"m 297 472 q 329 380 297 407 q 428 353 362 353 q 492 658 466 516 q 530 932 517 800 q 610 924 582 926 q 655 922 638 922 q 724 926 687 922 q 782 932 761 930 q 710 662 743 808 q 648 352 677 516 l 688 353 q 855 494 818 353 q 931 932 892 635 q 989 927 952 932 q 1048 923 1027 923 q 1118 927 1075 923 q 1168 932 1161 932 q 1127 759 1153 883 q 1080 533 1102 634 q 936 347 1057 432 q 628 263 814 263 q 609 129 618 196 q 593 0 599 63 q 530 4 578 0 q 461 10 482 10 q 396 5 432 10 q 341 0 360 1 q 382 154 374 125 q 406 263 389 183 q 179 322 279 263 q 80 500 80 381 q 82 551 80 535 q 93 612 84 567 l 131 795 q 142 855 135 816 q 155 932 149 894 q 223 927 180 932 q 274 923 266 923 q 332 926 299 923 q 392 932 366 929 q 315 653 334 753 q 297 472 297 553 "},"C":{"x_min":36,"x_max":969.453125,"ha":929,"o":"m 502 -21 q 165 89 295 -21 q 36 403 36 199 q 212 796 36 641 q 630 951 388 951 q 806 929 723 951 q 969 863 890 908 q 942 792 963 851 q 902 670 920 733 l 884 676 q 794 817 861 769 q 629 865 727 865 q 365 712 452 865 q 278 366 278 559 q 343 151 278 234 q 537 69 408 69 q 680 96 612 69 q 812 179 748 124 l 829 159 q 808 105 818 133 q 788 40 798 77 q 654 -6 729 8 q 502 -21 580 -21 "},"œ":{"x_min":5,"x_max":1165,"ha":1211,"o":"m 300 -19 q 83 55 161 -19 q 5 268 5 129 q 121 561 5 436 q 406 686 238 686 q 540 663 475 686 q 643 593 604 641 q 765 661 703 637 q 893 686 827 686 q 1089 622 1014 686 q 1165 441 1165 559 q 1162 386 1165 415 q 1155 325 1160 358 l 902 325 l 724 325 q 720 295 721 309 q 718 261 718 282 q 773 128 718 178 q 910 79 827 79 q 1106 146 1016 79 l 1123 127 q 1068 32 1091 79 q 959 -4 1017 9 q 846 -19 902 -19 q 694 3 764 -19 q 572 78 624 25 q 451 4 524 28 q 300 -19 379 -19 m 871 390 l 960 390 q 972 453 969 428 q 976 506 976 477 q 957 587 976 556 q 892 619 939 619 q 790 553 824 619 q 738 394 757 488 l 871 390 m 218 193 q 245 94 218 140 q 321 49 272 49 q 479 196 428 49 q 531 473 531 343 q 506 582 531 534 q 427 630 482 630 q 308 553 349 630 q 244 375 266 476 q 218 193 218 282 "},"!":{"x_min":40,"x_max":440,"ha":458,"o":"m 158 -17 q 74 16 109 -17 q 40 98 40 49 q 74 181 40 146 q 159 216 109 216 q 241 179 208 216 q 275 93 275 143 q 241 14 275 46 q 158 -17 208 -17 m 178 310 l 199 792 q 226 909 199 868 q 323 951 252 951 q 405 928 370 951 q 440 860 440 905 q 433 810 440 835 q 410 745 426 785 l 222 310 l 178 310 "},"ç":{"x_min":3,"x_max":661.328125,"ha":658,"o":"m 332 -14 q 98 60 193 -14 q 3 269 3 134 q 128 561 3 441 q 428 682 254 682 q 552 668 496 682 q 661 621 608 655 q 624 527 641 584 q 597 440 607 470 l 575 436 l 576 465 q 537 572 576 529 q 434 615 498 615 q 273 507 324 615 q 222 277 222 399 q 262 132 222 190 q 388 74 302 74 q 464 88 426 74 q 539 128 502 103 l 555 111 l 503 15 q 417 -6 459 1 q 332 -14 375 -14 m 90 -194 q 189 -229 154 -220 q 255 -239 224 -239 q 304 -225 283 -239 q 326 -184 326 -211 q 306 -145 326 -158 q 258 -132 287 -132 q 201 -139 231 -132 l 247 1 l 305 1 l 280 -74 l 321 -70 q 411 -99 376 -70 q 447 -181 447 -128 q 404 -276 447 -245 q 294 -308 361 -308 q 196 -291 252 -308 q 94 -251 140 -274 l 90 -194 "},"{":{"x_min":104,"x_max":588.71875,"ha":683,"o":"m 588 844 l 540 844 q 495 836 516 844 q 463 816 473 828 q 448 792 453 803 q 442 753 444 781 l 442 712 l 442 552 q 415 423 442 464 q 305 353 388 381 q 413 287 384 335 q 442 154 442 240 l 442 -5 q 465 -105 442 -74 q 555 -137 489 -137 l 588 -137 l 588 -277 l 481 -275 q 344 -234 397 -268 q 281 -122 290 -200 l 281 -48 l 281 117 q 246 238 281 194 q 138 283 212 283 l 104 283 l 104 423 q 240 459 200 423 q 281 589 281 495 l 281 757 l 281 831 q 356 951 293 919 q 518 983 419 983 l 588 983 l 588 844 "},"X":{"x_min":-90,"x_max":868.34375,"ha":803,"o":"m 195 313 l 311 445 q 223 684 272 564 q 119 932 175 805 q 186 926 150 929 q 250 924 222 924 q 313 926 276 924 q 379 931 349 929 q 423 785 398 862 q 477 630 448 708 q 695 931 590 776 q 782 924 739 928 q 825 928 796 924 q 868 931 854 931 q 739 795 808 870 q 613 654 670 720 l 511 529 q 587 298 563 363 q 625 191 611 233 l 694 0 q 626 5 666 2 q 558 8 586 8 q 498 5 531 8 q 433 0 465 2 q 395 165 416 80 q 349 331 374 250 q 213 170 276 248 q 84 0 151 93 q 39 6 61 4 q -2 8 16 8 q -45 5 -22 8 q -90 0 -69 2 q 52 153 1 98 q 195 313 102 208 "},"ô":{"x_min":5,"x_max":724,"ha":781,"o":"m 390 688 q 630 615 536 688 q 724 398 724 542 q 608 108 724 234 q 333 -18 493 -18 q 93 52 181 -18 q 5 272 5 122 q 39 445 5 354 q 172 612 73 536 q 390 688 272 688 m 594 757 l 473 887 l 293 757 l 224 757 l 433 1004 l 547 1004 l 651 757 l 594 757 m 213 194 q 235 94 213 140 q 306 49 257 49 q 462 201 411 49 q 513 487 513 353 q 490 586 513 544 q 417 628 468 628 q 292 534 329 628 q 240 378 254 441 q 220 285 228 336 q 213 194 213 235 "},"#":{"x_min":30,"x_max":1019,"ha":1050,"o":"m 619 975 l 520 699 l 684 699 l 782 975 l 930 975 l 831 699 l 1019 700 l 972 564 l 784 563 l 727 403 l 922 403 l 872 271 l 678 271 l 579 -5 l 431 -5 l 530 271 l 366 271 l 269 -5 l 121 -5 l 221 271 l 30 271 l 79 403 l 268 403 l 325 564 l 126 564 l 176 700 l 374 700 l 471 975 l 619 975 m 412 403 l 580 403 l 637 564 l 469 564 l 412 403 "},"ι":{"x_min":-8.71875,"x_max":352.390625,"ha":393,"o":"m 130 667 q 245 660 189 660 q 305 663 267 660 q 352 667 344 667 q 272 333 305 490 q 213 0 239 176 l 110 5 q 41 2 89 5 q -8 0 -5 0 q 70 351 32 176 q 130 667 107 526 "},"Ά":{"x_min":-93,"x_max":786,"ha":856,"o":"m 519 34 q 511 147 519 88 q 496 265 503 206 q 341 275 416 275 q 265 270 306 275 q 201 265 224 266 q 115 111 137 151 q 61 0 94 70 l -8 5 q -44 3 -22 5 q -93 0 -66 1 q 97 292 6 149 q 274 577 187 434 q 491 938 362 721 l 555 933 q 589 935 570 933 q 617 938 608 936 l 665 618 q 701 394 681 514 q 739 188 722 273 q 786 0 756 102 q 701 10 734 7 q 648 13 669 13 q 598 10 621 13 q 519 0 576 7 l 519 34 m -44 756 l 159 970 q 202 1004 180 991 q 247 1018 225 1018 q 294 994 273 1018 q 315 945 315 970 q 299 906 315 922 q 257 873 283 890 l 23 756 l -44 756 m 333 363 l 485 363 q 468 529 473 478 q 448 671 462 580 q 350 518 404 603 q 257 365 295 433 l 333 363 "},")":{"x_min":-86.109375,"x_max":360,"ha":446,"o":"m 360 473 q 249 87 360 262 q -52 -187 139 -87 l -86 -132 l -17 -82 q 154 196 100 26 q 209 551 209 366 q 190 750 209 659 q 125 922 172 841 l 172 957 q 314 730 268 844 q 360 473 360 616 "},"ε":{"x_min":-5,"x_max":590.84375,"ha":657,"o":"m 545 483 l 531 483 q 485 579 521 546 q 387 612 450 612 q 307 582 340 612 q 275 503 275 552 q 309 425 275 453 q 438 397 344 397 q 426 365 429 378 q 418 315 424 351 q 383 320 401 319 q 345 322 365 322 q 243 287 285 322 q 201 192 201 252 q 244 92 201 130 q 353 54 288 54 q 470 87 418 54 q 556 179 522 120 l 570 173 q 565 144 567 158 q 564 113 564 130 q 567 74 564 98 q 571 44 571 49 q 450 0 518 13 q 310 -14 382 -14 q 90 30 185 -14 q -5 185 -5 74 q 49 307 -5 265 q 188 359 103 349 q 117 414 143 381 q 92 494 92 446 q 173 635 92 588 q 358 683 255 683 q 478 662 419 683 q 590 605 536 642 q 564 542 571 558 q 545 483 557 526 "},"Δ":{"x_min":-93,"x_max":786,"ha":856,"o":"m 491 938 q 522 934 508 935 q 555 933 536 933 q 589 935 570 933 q 618 938 608 937 l 665 618 q 720 278 695 416 q 786 0 745 139 q 568 4 734 0 q 327 10 402 10 q 107 4 255 10 q -93 0 -40 0 q 100 298 22 174 q 268 566 179 421 q 491 938 356 711 m 257 113 q 408 116 317 113 q 514 120 500 120 l 498 255 q 448 671 476 469 q 314 460 380 572 l 120 119 l 257 113 "},"â":{"x_min":-9,"x_max":622.9375,"ha":714,"o":"m 175 -14 q 42 32 94 -14 q -9 159 -9 79 q 61 320 -9 267 q 220 382 132 372 q 366 401 307 392 q 419 486 419 417 q 386 561 419 536 q 300 586 353 586 q 135 505 198 586 l 119 501 q 139 611 134 558 q 266 662 203 643 q 389 682 328 682 q 549 635 483 682 q 615 500 615 588 q 609 454 612 476 q 601 409 606 432 l 560 232 q 544 162 552 198 q 536 95 536 126 q 552 68 536 79 q 585 57 567 57 q 606 59 595 57 q 622 63 617 61 l 619 15 q 492 -10 560 -10 q 352 88 384 -10 q 280 11 326 37 q 175 -14 234 -14 m 562 755 l 440 886 l 260 755 l 192 755 l 399 1003 l 512 1003 l 619 755 l 562 755 m 190 177 q 206 115 190 141 q 256 90 223 90 q 357 195 336 90 q 384 328 378 300 q 250 291 303 328 q 190 177 196 254 "},"}":{"x_min":93,"x_max":579,"ha":683,"o":"m 125 983 q 323 955 244 983 q 403 831 403 927 l 403 757 l 403 589 q 419 490 403 532 q 480 431 436 448 q 524 425 500 427 q 579 423 549 423 l 579 283 q 442 249 481 283 q 403 117 403 216 l 403 -49 q 373 -204 403 -147 q 284 -267 343 -260 q 179 -275 225 -274 q 93 -277 133 -277 l 93 -138 q 201 -120 162 -138 q 240 -42 240 -103 l 240 -4 l 240 153 q 269 284 240 241 q 380 353 298 328 q 268 421 296 378 q 240 552 240 463 l 240 712 q 218 814 240 785 q 126 844 197 844 l 93 844 l 93 983 l 125 983 "},"Ä":{"x_min":-94,"x_max":832,"ha":856,"o":"m 520 33 q 512 147 520 87 q 497 265 504 206 q 406 272 446 269 q 342 275 365 275 q 269 270 318 275 q 201 265 219 265 q 96 71 115 108 q 60 0 76 34 l -7 5 q -55 2 -21 5 q -94 0 -89 0 q 96 292 6 149 q 274 577 186 434 q 491 938 361 721 q 531 932 521 933 q 556 932 542 932 q 585 933 574 932 q 617 938 596 934 l 665 617 q 718 301 690 462 q 785 0 746 140 q 716 6 762 2 q 647 11 669 11 q 601 9 618 11 q 518 0 585 8 l 520 33 m 482 1253 q 548 1225 520 1253 q 577 1159 577 1198 q 550 1092 577 1120 q 484 1065 524 1065 q 415 1092 443 1065 q 387 1159 387 1119 q 416 1225 387 1197 q 482 1253 445 1253 m 736 1253 q 803 1225 775 1253 q 832 1159 832 1198 q 804 1092 832 1120 q 736 1065 776 1065 q 669 1092 696 1065 q 642 1159 642 1119 q 669 1225 642 1197 q 736 1253 697 1253 m 332 364 l 485 364 q 449 671 468 540 q 334 493 368 547 q 257 365 300 440 l 332 364 "},"a":{"x_min":-9,"x_max":624.328125,"ha":713,"o":"m 174 -14 q 42 31 93 -14 q -9 158 -9 77 q 61 320 -9 266 q 244 386 132 373 q 388 410 356 398 q 421 489 421 421 q 386 561 421 535 q 302 588 351 588 q 135 505 198 588 l 120 502 q 139 612 134 564 q 265 662 203 644 q 389 681 327 681 q 550 635 485 681 q 615 500 615 590 q 601 411 610 448 l 560 230 q 541 140 543 159 q 538 94 538 120 q 552 65 538 77 q 586 54 567 54 q 624 63 604 58 l 621 11 q 495 -14 560 -14 q 354 86 386 -14 q 281 10 327 34 q 174 -14 235 -14 m 190 176 q 206 114 190 140 q 256 89 223 89 q 330 124 310 89 q 386 328 349 159 q 250 291 303 328 q 190 176 196 254 "},"=":{"x_min":169.4375,"x_max":969.453125,"ha":1138,"o":"m 969 617 l 969 485 l 169 485 l 169 617 l 969 617 m 969 329 l 969 197 l 169 197 l 169 329 l 969 329 "},"N":{"x_min":6.9375,"x_max":1033.328125,"ha":1038,"o":"m 194 946 l 265 938 q 341 941 317 938 q 379 946 365 944 q 467 795 399 911 q 560 640 536 680 q 652 493 584 600 l 780 281 l 841 615 q 895 931 872 766 l 962 925 q 1003 927 984 925 q 1033 931 1022 930 q 977 724 1002 827 q 927 501 952 620 l 858 159 l 825 -14 l 752 -5 q 714 -8 737 -5 q 673 -14 691 -11 q 533 237 605 109 q 404 458 461 364 q 263 678 347 551 l 208 384 q 151 -1 173 170 q 107 5 126 2 q 76 8 88 8 q 38 4 59 8 q 6 -1 18 0 q 123 473 73 227 q 194 946 172 718 "},"ρ":{"x_min":-115.671875,"x_max":737,"ha":793,"o":"m 27 187 q 85 425 56 305 q 199 620 125 553 q 421 688 273 688 q 642 615 548 688 q 737 418 737 542 q 642 125 737 264 q 400 -14 548 -14 q 282 15 337 -14 q 202 101 228 45 q 142 -147 166 -34 q 109 -374 119 -259 q 6 -366 56 -366 q -115 -374 -53 -366 q -36 -84 -68 -209 q 27 187 -4 40 m 531 489 q 507 581 531 541 q 433 621 483 621 q 290 482 341 621 q 239 226 239 343 q 263 133 239 175 q 334 92 287 92 q 426 137 388 92 q 503 312 464 183 q 525 419 519 380 q 531 489 531 458 "},"2":{"x_min":-57,"x_max":703,"ha":749,"o":"m -41 76 q 195 259 88 169 q 388 466 302 350 q 475 690 475 582 q 446 790 475 747 q 363 834 417 834 q 263 773 294 834 q 233 636 233 712 l 223 623 q 139 705 169 673 q 94 754 109 737 q 405 910 205 910 q 614 854 525 910 q 703 686 703 798 q 638 510 703 586 q 462 351 573 434 l 340 257 l 228 171 l 495 180 l 640 187 q 615 94 627 148 q 597 0 602 40 q 433 3 544 0 q 268 8 322 8 q 105 3 213 8 q -57 0 -2 0 q -41 76 -41 35 "},"ü":{"x_min":25,"x_max":772.21875,"ha":808,"o":"m 630 0 q 571 2 613 0 q 527 5 530 5 q 465 2 509 5 q 418 0 422 0 q 443 86 436 38 q 333 13 395 40 q 206 -14 272 -14 q 75 27 126 -14 q 25 148 25 69 q 29 207 25 176 q 43 274 34 238 l 77 426 q 100 530 90 476 q 122 668 109 584 l 230 664 l 348 668 q 270 375 301 501 q 239 180 239 249 q 256 117 239 141 q 311 94 273 94 q 349 105 331 94 q 468 245 438 150 q 517 501 498 340 l 546 668 l 658 664 l 772 668 q 630 0 687 341 m 365 974 q 432 946 404 974 q 460 878 460 918 q 433 811 460 837 q 366 785 407 785 q 299 811 327 785 q 272 878 272 837 q 299 945 272 917 q 365 974 326 974 m 621 974 q 687 946 659 974 q 715 878 715 918 q 688 811 715 837 q 621 785 662 785 q 553 811 581 785 q 526 878 526 837 q 553 946 526 918 q 621 974 581 974 "},"Z":{"x_min":-44.4375,"x_max":900,"ha":857,"o":"m -40 60 q 177 333 84 216 q 349 554 270 451 q 552 823 427 656 l 438 825 q 277 818 388 825 q 127 811 166 811 q 144 864 138 837 q 155 932 150 890 q 348 928 215 932 q 543 924 481 924 q 720 928 601 924 q 900 932 840 932 l 894 882 q 565 486 718 675 q 276 111 412 298 q 545 119 355 111 q 801 128 734 128 q 779 0 779 67 q 572 3 709 0 q 365 8 434 8 q 161 3 297 8 q -44 0 25 0 l -40 60 "},"u":{"x_min":25,"x_max":772.21875,"ha":810,"o":"m 628 -1 q 571 3 583 2 q 528 4 559 4 q 466 1 510 4 q 419 -1 423 -1 q 443 85 437 43 q 335 11 395 37 q 206 -14 274 -14 q 75 27 126 -14 q 25 147 25 68 q 27 188 25 173 q 43 273 29 202 l 77 426 q 102 545 90 475 q 120 670 113 614 q 229 663 169 663 q 348 670 294 663 q 270 374 301 501 q 239 179 239 247 q 256 116 239 140 q 311 93 273 93 q 386 122 332 93 q 470 245 441 151 q 519 501 500 339 l 547 670 q 602 667 565 670 q 658 663 640 663 q 724 667 679 663 q 772 670 769 670 q 696 345 731 511 q 628 -1 660 179 "},"k":{"x_min":-13.890625,"x_max":800,"ha":742,"o":"m 194 1025 q 305 1018 252 1018 q 423 1025 358 1018 q 356 765 386 893 l 275 388 l 300 381 l 448 505 q 527 575 497 545 q 615 666 556 604 q 661 661 637 663 q 705 658 686 658 q 747 661 723 658 q 791 666 772 663 l 800 656 q 636 539 712 598 q 472 402 559 480 q 652 0 552 197 q 577 3 626 0 q 522 6 529 6 q 453 3 496 6 q 404 0 411 0 q 360 142 383 74 q 298 306 336 210 l 260 306 q 227 143 236 188 q 203 0 218 98 q 139 3 177 0 q 93 6 100 6 q 31 3 69 6 q -13 0 -6 0 q 106 496 48 208 q 194 1025 163 784 "},"Η":{"x_min":0,"x_max":1023.609375,"ha":1024,"o":"m 283 247 q 258 115 268 177 q 248 0 248 54 q 187 4 234 0 q 118 10 140 10 q 64 7 94 10 q 0 0 34 4 q 65 247 1 5 q 158 639 130 488 q 186 932 186 790 q 238 925 208 929 q 305 922 268 922 q 363 924 333 922 q 433 931 394 926 l 383 730 l 344 560 l 541 556 l 713 556 l 741 691 q 762 824 752 746 q 775 931 772 902 q 838 925 809 927 q 897 922 866 922 q 955 925 923 922 q 1023 931 987 927 q 911 483 956 716 q 834 0 865 251 q 772 4 819 0 q 705 9 726 9 q 642 4 684 9 q 586 0 600 0 q 615 102 598 40 q 640 209 631 165 l 690 449 l 501 453 l 323 448 l 283 247 "},"Α":{"x_min":-93,"x_max":786,"ha":856,"o":"m 519 34 q 511 147 519 88 q 496 265 503 206 q 341 275 416 275 q 265 270 306 275 q 201 265 224 266 q 115 111 137 151 q 61 0 94 70 l -8 5 q -44 3 -22 5 q -93 0 -66 1 q 97 292 6 149 q 274 577 187 434 q 491 938 362 721 l 555 933 q 589 935 570 933 q 617 938 608 936 l 665 618 q 701 394 681 514 q 739 188 722 273 q 786 0 756 102 q 701 10 734 7 q 648 13 669 13 q 598 10 621 13 q 519 0 576 7 l 519 34 m 333 363 l 485 363 q 468 529 473 478 q 448 671 462 580 q 350 518 404 603 q 257 365 295 433 l 333 363 "},"ß":{"x_min":-18,"x_max":728,"ha":801,"o":"m 57 317 l 100 541 q 164 780 123 676 q 284 955 205 885 q 490 1026 364 1026 q 655 986 583 1026 q 728 859 728 946 q 633 705 728 781 q 539 573 539 628 q 633 441 539 540 q 728 255 728 342 q 636 63 728 145 q 428 -18 544 -18 q 274 26 344 -18 q 312 111 298 72 q 338 199 327 150 l 358 186 q 395 95 362 134 q 478 57 428 57 q 545 87 519 57 q 572 159 572 118 q 473 318 572 224 q 374 484 374 412 q 494 661 374 563 q 615 845 615 760 q 584 922 615 893 q 505 952 553 952 q 406 903 448 952 q 321 680 363 854 q 250 322 279 505 q 206 0 222 140 l 52 2 l -18 0 q 18 149 0 68 q 57 317 37 230 "},"é":{"x_min":3,"x_max":667,"ha":714,"o":"m 336 -18 q 100 60 197 -18 q 3 274 3 138 q 118 562 3 441 q 400 683 233 683 q 594 618 522 683 q 667 432 667 553 q 662 372 667 402 q 655 325 658 342 l 401 325 l 222 325 q 222 299 222 313 q 222 277 222 285 l 222 260 q 272 124 222 172 q 411 76 323 76 q 607 146 515 76 l 622 127 q 569 32 589 73 q 336 -18 451 -18 m 299 757 l 503 968 q 546 1005 529 994 q 590 1017 562 1017 q 640 996 621 1017 q 659 944 659 975 q 647 908 659 919 q 625 887 632 890 q 600 873 618 883 l 366 757 l 299 757 m 366 394 l 461 399 q 477 513 477 448 q 455 588 477 554 q 397 622 433 622 q 291 553 328 622 q 239 398 254 485 l 366 394 "},"s":{"x_min":-40,"x_max":548.890625,"ha":581,"o":"m 12 231 l 30 228 q 95 102 53 151 q 209 54 137 54 q 277 75 248 54 q 307 134 307 97 q 180 277 307 197 q 54 451 54 358 q 131 617 54 553 q 312 681 208 681 q 448 658 377 681 q 548 593 518 635 q 512 523 529 562 q 480 444 494 484 l 462 451 q 417 565 462 516 q 306 614 373 614 q 240 593 269 614 q 211 538 211 573 q 350 404 211 486 q 489 220 489 322 q 406 48 489 111 q 208 -14 323 -14 q 75 6 140 -14 q -40 66 11 26 q -12 142 -26 98 q 12 231 1 186 "},"B":{"x_min":4,"x_max":793,"ha":832,"o":"m 187 931 q 261 925 244 926 q 301 925 279 925 q 415 930 342 925 q 511 935 488 935 q 709 889 626 935 q 793 736 793 843 q 718 568 793 633 q 535 487 644 502 l 535 479 q 669 425 613 479 q 726 293 726 372 q 617 65 726 130 q 333 0 508 0 q 196 3 281 0 q 94 6 110 6 l 4 0 q 86 311 42 136 q 158 649 130 486 q 187 931 187 812 m 572 717 q 540 812 572 776 q 448 849 508 849 l 402 849 q 381 755 391 808 q 366 682 370 703 l 340 531 q 508 573 445 531 q 572 717 572 615 m 287 89 q 443 152 385 89 q 501 315 501 215 q 455 423 501 397 q 323 449 410 449 l 290 287 l 251 90 l 287 89 "},"?":{"x_min":116,"x_max":585,"ha":600,"o":"m 231 -17 q 149 14 182 -17 q 116 95 116 46 q 147 180 116 146 q 226 215 178 215 q 312 181 276 215 q 349 98 349 148 q 314 16 349 49 q 231 -17 279 -17 m 439 356 q 422 319 431 341 q 409 276 414 297 l 353 272 q 205 317 268 272 q 142 444 142 363 q 269 627 142 530 q 397 793 397 724 q 369 852 397 829 q 305 875 342 875 q 238 857 276 875 q 189 818 200 840 l 160 818 q 177 872 172 852 q 182 916 182 891 q 340 951 253 951 q 511 893 437 951 q 585 741 585 835 q 542 609 585 646 q 396 504 500 572 q 293 390 293 437 q 313 351 294 366 q 356 336 331 336 q 390 342 374 336 q 424 361 406 348 l 439 356 "},"H":{"x_min":0,"x_max":1025,"ha":1025,"o":"m 280 238 q 261 119 270 191 q 247 0 251 47 q 174 7 205 4 q 122 10 143 10 q 55 5 91 10 q 0 0 19 1 q 84 343 51 204 q 144 629 116 483 q 188 932 172 776 q 253 925 218 929 q 309 922 288 922 q 377 926 340 922 q 436 932 415 930 q 406 824 419 875 q 384 726 394 773 l 347 559 l 538 554 l 711 559 l 740 695 q 763 836 751 751 q 776 932 775 922 q 849 925 818 928 q 901 922 880 922 q 968 926 931 922 q 1025 932 1004 930 q 945 621 984 783 q 877 299 906 459 q 833 0 848 138 q 770 6 804 2 q 718 9 737 9 q 651 6 686 9 q 587 0 616 2 l 638 205 l 691 448 q 594 451 662 448 q 498 454 526 454 q 412 451 470 454 q 325 448 354 448 l 280 238 "},"ν":{"x_min":21,"x_max":642,"ha":638,"o":"m 21 666 q 82 660 59 662 q 130 658 105 658 q 187 661 157 658 q 248 666 218 663 q 274 398 265 481 q 305 189 283 314 l 379 316 q 434 428 416 381 q 453 531 453 476 q 448 578 453 555 q 432 641 443 601 q 523 648 480 641 q 629 672 565 655 q 637 640 633 659 q 642 606 642 620 q 589 446 642 533 q 430 214 536 360 q 296 0 323 67 q 253 3 276 0 q 208 8 229 8 q 165 3 189 8 q 121 0 141 0 q 75 348 98 192 q 21 666 52 504 "},"î":{"x_min":-9,"x_max":459,"ha":393,"o":"m 131 667 q 198 663 156 667 q 246 660 240 660 q 308 663 269 660 q 352 667 346 667 q 272 330 308 505 q 215 0 236 155 q 162 2 197 0 q 110 5 127 5 q 43 2 88 5 q -9 0 0 0 q 49 252 21 129 q 92 452 77 376 q 131 667 108 527 m 402 756 l 280 886 l 102 756 l 33 756 l 239 1003 l 352 1003 l 459 756 l 402 756 "},"c":{"x_min":4,"x_max":662.5,"ha":658,"o":"m 333 -14 q 97 58 191 -14 q 4 269 4 131 q 129 562 4 443 q 429 681 255 681 q 554 667 495 681 q 662 624 612 654 q 627 537 644 589 q 597 440 611 486 l 575 437 l 576 466 q 538 573 576 530 q 436 616 499 616 q 274 508 326 616 q 222 278 222 401 q 263 130 222 189 q 388 71 304 71 q 465 85 427 71 q 538 126 504 99 l 554 110 l 504 12 q 419 -7 461 0 q 333 -14 377 -14 "},"¶":{"x_min":173,"x_max":736.890625,"ha":590,"o":"m 503 968 l 736 968 l 724 910 l 666 910 l 473 4 l 415 4 l 607 910 l 498 909 l 306 3 l 247 4 l 364 558 q 227 602 281 558 q 173 718 173 645 q 264 882 173 797 q 503 968 356 968 "},"β":{"x_min":-100,"x_max":774,"ha":794,"o":"m 52 277 q 134 671 95 494 q 271 937 172 849 q 507 1026 369 1026 q 696 962 619 1026 q 774 787 774 898 q 721 631 774 695 q 580 538 669 567 q 687 448 650 509 q 724 309 724 387 q 630 78 724 170 q 394 -14 536 -14 q 288 1 339 -14 q 201 51 237 16 l 169 -104 l 119 -371 q 9 -362 65 -362 q -100 -371 -45 -362 q -22 -62 -61 -239 q 52 277 16 115 m 388 575 l 419 575 q 550 653 511 575 q 589 834 589 731 q 568 917 589 880 q 507 955 548 955 q 425 918 451 955 q 305 583 368 852 q 242 198 242 314 q 267 106 242 143 q 344 69 293 69 q 477 162 437 69 q 517 363 517 255 q 479 458 517 431 q 369 486 441 486 l 388 575 "},"Μ":{"x_min":-11.109375,"x_max":1213.890625,"ha":1231,"o":"m 222 932 q 265 926 240 929 q 309 923 291 923 q 348 926 326 923 q 391 932 370 929 q 480 610 436 761 q 579 310 525 460 l 866 698 l 1033 932 q 1090 926 1061 929 q 1123 923 1119 923 q 1169 927 1138 923 q 1213 932 1200 932 q 1138 598 1168 740 q 1085 307 1109 457 q 1047 0 1061 157 l 962 8 q 881 6 913 8 q 809 0 848 5 q 859 239 833 93 q 890 413 886 386 l 919 590 q 702 297 808 448 q 497 -11 597 147 l 415 -11 q 344 289 383 141 q 256 597 305 437 q 195 304 226 463 q 140 0 163 144 q 101 4 127 0 q 62 8 74 8 q 26 5 45 8 q -11 0 6 2 q 222 932 116 459 "},"Ό":{"x_min":-44,"x_max":1289,"ha":1325,"o":"m 244 392 q 402 787 244 623 q 785 951 560 951 q 1150 857 1011 951 q 1289 546 1289 763 q 1121 147 1289 308 q 713 -14 953 -14 q 582 -7 636 -14 q 447 34 528 0 q 305 169 366 69 q 244 392 244 270 m -44 756 l 160 970 q 203 1004 181 991 q 247 1018 225 1018 q 294 994 274 1018 q 315 945 315 970 q 299 906 315 922 q 257 873 283 890 l 23 756 l -44 756 m 491 360 q 545 156 491 237 q 720 75 599 75 q 967 230 886 75 q 1049 570 1049 385 q 991 777 1049 692 q 817 862 933 862 q 611 757 688 862 q 512 546 534 653 q 491 360 491 438 "},"Ή":{"x_min":-44,"x_max":1302.78125,"ha":1303,"o":"m 558 237 q 538 118 548 190 q 525 0 529 47 q 452 7 483 4 q 400 10 420 10 q 333 5 369 10 q 277 0 297 1 q 361 343 329 203 q 422 629 394 483 q 466 931 450 776 q 531 925 495 929 q 587 922 566 922 q 655 926 618 922 q 713 931 693 930 q 684 824 697 874 q 662 726 672 773 l 625 559 l 816 554 l 988 560 l 1018 696 q 1040 836 1029 751 q 1054 931 1052 922 q 1127 925 1095 927 q 1179 922 1158 922 q 1245 926 1209 922 q 1302 931 1281 930 q 1223 621 1262 783 q 1155 299 1184 459 q 1111 0 1126 138 q 1048 6 1081 2 q 995 9 1015 9 q 929 6 963 9 q 865 0 894 2 l 916 205 l 969 448 q 872 451 940 448 q 776 454 804 454 q 690 449 748 454 q 602 445 631 445 l 558 237 m -44 756 l 159 970 q 202 1004 180 991 q 247 1018 225 1018 q 294 994 273 1018 q 315 945 315 970 q 299 906 315 922 q 257 873 283 890 l 23 756 l -44 756 "},"¥":{"x_min":9,"x_max":817.34375,"ha":749,"o":"m 229 264 q 120 262 175 264 q 9 259 64 261 l 25 332 l 243 332 l 263 422 l 43 418 l 57 490 l 249 490 q 181 714 206 640 q 121 886 156 788 q 172 882 139 886 q 224 877 206 877 q 278 882 242 877 q 333 886 314 886 q 422 540 365 714 q 672 886 543 689 q 705 880 688 883 q 739 877 722 877 q 777 880 756 877 q 817 886 797 883 q 637 678 707 761 q 489 490 568 595 q 589 490 522 490 q 690 490 657 490 l 677 418 l 455 422 l 433 329 l 657 332 l 643 259 q 531 261 588 259 q 418 264 473 262 q 392 126 404 194 q 373 0 380 58 q 317 4 354 0 q 268 10 280 10 q 212 4 249 10 q 165 0 175 0 q 197 125 178 44 q 229 264 217 206 "},"(":{"x_min":57,"x_max":505.5625,"ha":446,"o":"m 57 294 q 169 682 57 505 q 472 957 281 859 l 505 901 q 276 611 345 789 q 207 215 207 433 q 226 19 207 111 q 290 -153 245 -72 l 244 -187 q 102 38 148 -75 q 57 294 57 152 "},"U":{"x_min":71,"x_max":1014.0625,"ha":1006,"o":"m 305 923 q 364 926 330 923 q 426 932 398 929 q 361 705 394 822 q 306 473 328 587 q 285 259 285 358 q 334 139 285 183 q 459 96 383 96 q 585 120 528 96 q 692 203 643 144 q 777 391 741 262 q 834 665 814 521 q 873 932 855 810 l 946 926 l 1014 932 q 911 504 946 658 q 868 306 877 349 q 831 195 855 270 q 691 51 807 120 q 427 -17 576 -17 q 171 43 272 -17 q 71 249 71 103 q 95 440 71 308 q 147 718 119 573 q 182 932 175 862 q 247 925 216 927 q 305 923 277 923 "},"γ":{"x_min":-11.109375,"x_max":716.671875,"ha":669,"o":"m 350 62 q 299 -164 319 -65 q 263 -374 279 -262 l 187 -365 q 47 -374 123 -365 q 134 -68 109 -169 q 159 152 159 32 q 133 425 159 287 q 30 563 106 563 q 8 560 16 563 q -11 555 0 558 l -11 636 q 64 671 33 662 q 145 681 95 681 q 288 596 254 681 q 333 422 323 511 q 343 233 343 334 q 579 666 484 438 l 650 663 l 716 666 q 593 479 656 581 q 481 292 530 377 q 350 62 431 208 "},"α":{"x_min":5,"x_max":850.828125,"ha":890,"o":"m 277 -14 q 78 71 152 -14 q 5 284 5 156 q 127 566 5 449 q 414 683 249 683 q 653 538 581 683 q 687 666 674 600 l 769 663 l 850 666 q 788 520 816 590 q 718 340 760 451 q 797 1 744 170 l 634 2 l 564 1 q 557 68 564 34 q 548 122 551 102 q 427 21 495 56 q 277 -14 359 -14 m 425 627 q 257 475 307 627 q 208 173 208 323 q 230 83 208 117 q 307 50 253 50 q 478 169 419 62 q 537 396 537 276 q 529 502 537 456 q 507 576 521 549 q 467 618 493 603 q 425 627 448 627 "},"F":{"x_min":0,"x_max":734.71875,"ha":674,"o":"m 186 932 q 313 928 229 932 q 441 924 398 924 q 588 928 491 924 q 734 932 686 932 q 713 873 722 904 q 705 813 705 842 q 600 825 652 820 q 500 831 548 831 l 402 831 q 388 789 394 812 q 370 705 383 766 l 340 548 l 466 547 q 640 558 551 547 q 620 433 620 499 q 529 441 581 437 q 438 446 476 446 q 390 446 409 446 q 323 440 370 446 l 284 265 q 250 0 263 142 q 184 6 219 2 q 126 10 148 10 q 58 5 95 10 q 0 0 20 1 q 113 489 66 262 q 186 932 161 716 "},"­":{"x_min":-36.5,"x_max":667.671875,"ha":683,"o":"m -12 404 l 667 404 l 646 261 l -36 261 l -12 404 "},":":{"x_min":51,"x_max":368,"ha":458,"o":"m 168 217 q 250 183 217 217 q 284 101 284 150 q 248 20 284 54 q 167 -14 213 -14 q 84 18 118 -14 q 51 100 51 51 q 85 182 51 147 q 168 217 120 217 m 253 681 q 334 648 301 681 q 368 568 368 616 q 333 484 368 518 q 251 450 299 450 q 170 483 203 450 q 137 566 137 516 q 170 647 137 614 q 253 681 203 681 "},"Χ":{"x_min":-90,"x_max":868.34375,"ha":803,"o":"m 195 313 l 311 445 q 223 684 272 564 q 119 932 175 805 q 186 926 150 929 q 250 924 222 924 q 313 926 276 924 q 379 931 349 929 q 423 785 398 862 q 477 630 448 708 q 695 931 590 776 q 782 924 739 928 q 825 928 796 924 q 868 931 854 931 q 739 795 808 870 q 613 654 670 720 l 511 529 q 587 298 563 363 q 625 191 611 233 l 694 0 q 626 5 666 2 q 558 8 586 8 q 498 5 531 8 q 433 0 465 2 q 395 165 416 80 q 349 331 374 250 q 213 170 276 248 q 84 0 151 93 q 39 6 61 4 q -2 8 16 8 q -45 5 -22 8 q -90 0 -69 2 q 52 153 1 98 q 195 313 102 208 "},"*":{"x_min":137,"x_max":652,"ha":683,"o":"m 355 656 q 247 603 281 619 q 173 563 213 586 q 164 625 173 596 q 137 688 155 654 q 340 711 228 688 q 256 765 300 740 q 163 813 211 791 q 249 913 215 862 q 307 831 278 869 q 376 754 337 794 q 379 870 376 797 q 383 958 383 944 q 444 937 415 944 q 511 930 474 930 q 467 838 487 886 q 433 738 446 790 q 613 836 516 776 q 652 710 619 769 q 558 704 603 710 q 451 686 513 698 q 538 628 499 651 q 626 583 577 605 q 578 537 596 558 q 538 484 559 515 q 490 552 512 525 q 413 644 469 579 q 405 547 406 590 q 404 435 404 505 q 338 456 372 448 q 276 463 305 463 q 355 656 323 557 "},"°":{"x_min":264,"x_max":603,"ha":683,"o":"m 454 1068 q 559 1031 516 1068 q 603 933 603 995 q 543 798 603 855 q 405 742 483 742 q 305 783 347 742 q 264 882 264 825 q 319 1013 264 959 q 454 1068 375 1068 m 415 786 q 497 831 466 786 q 528 930 528 876 q 508 997 528 970 q 450 1025 489 1025 q 368 977 397 1025 q 340 872 340 929 q 367 803 348 820 q 415 786 385 786 "},"V":{"x_min":54,"x_max":930.390625,"ha":813,"o":"m 399 298 q 608 618 512 456 q 772 932 705 780 l 844 925 q 892 928 860 925 q 930 932 923 932 q 634 472 776 702 q 358 0 492 242 q 318 8 334 5 q 285 11 302 11 q 245 6 267 11 q 208 0 223 1 q 143 474 178 255 q 54 931 108 694 l 187 925 l 315 932 q 326 733 315 832 q 355 533 337 634 q 399 298 373 431 "},"Ξ":{"x_min":-50,"x_max":872.21875,"ha":844,"o":"m 440 549 q 594 553 497 549 q 719 558 691 558 q 695 473 704 515 q 679 375 686 431 q 534 380 630 375 q 404 385 438 385 q 258 380 355 385 q 126 375 161 375 q 150 460 140 413 q 168 558 161 506 q 293 550 238 551 q 440 549 348 549 m 470 755 q 283 749 409 755 q 112 744 156 744 q 136 841 125 787 q 152 932 148 894 q 331 928 212 932 q 512 924 451 924 q 691 928 572 924 q 872 932 811 932 q 848 840 859 889 q 831 744 837 791 q 643 749 769 744 q 470 755 516 755 m 368 183 q 577 187 444 183 q 747 192 711 192 q 720 92 731 138 q 705 0 709 45 q 516 3 643 0 q 327 8 390 8 q 138 3 265 8 q -50 0 12 0 q -25 99 -37 48 q -8 192 -13 151 q 188 187 56 192 q 368 183 320 183 "}," ":{"x_min":0,"x_max":0,"ha":375},"Ϋ":{"x_min":41,"x_max":813.21875,"ha":706,"o":"m 131 80 l 168 259 l 197 391 q 128 663 166 531 q 41 932 91 794 q 160 924 107 924 q 296 932 227 924 q 389 540 331 725 q 654 932 541 738 q 688 927 661 930 q 734 924 714 924 q 813 932 775 924 q 618 676 717 811 q 425 405 518 541 l 393 267 q 352 0 364 130 q 295 4 339 0 q 234 10 252 10 q 170 6 202 10 q 109 0 139 2 q 124 49 122 44 q 131 80 125 53 m 373 1253 q 438 1225 410 1253 q 466 1159 466 1197 q 439 1092 466 1120 q 373 1065 413 1065 q 303 1091 331 1065 q 276 1159 276 1117 q 304 1225 276 1198 q 373 1253 332 1253 m 625 1253 q 691 1225 663 1253 q 719 1159 719 1197 q 693 1092 719 1119 q 627 1065 667 1065 q 558 1091 586 1065 q 531 1159 531 1117 q 558 1225 531 1197 q 625 1253 586 1253 "},"0":{"x_min":23,"x_max":727,"ha":749,"o":"m 452 908 q 654 827 582 908 q 727 615 727 746 q 618 183 727 384 q 296 -18 509 -18 q 88 71 154 -18 q 23 306 23 161 q 27 384 23 340 q 59 549 32 429 q 188 789 85 670 q 452 908 292 908 m 212 181 q 231 88 212 127 q 299 50 250 50 q 423 179 371 50 q 504 479 475 308 q 534 726 534 651 q 512 804 534 772 q 447 836 490 836 q 334 748 366 836 q 270 522 303 661 q 225 316 238 383 q 212 181 212 249 "},"@":{"x_min":61,"x_max":1307,"ha":1367,"o":"m 581 72 q 418 131 475 72 q 362 300 362 191 q 454 556 362 439 q 684 674 546 674 q 772 651 734 674 q 844 586 810 629 l 879 654 l 1000 654 l 898 254 l 894 229 q 913 193 894 205 q 958 181 931 181 q 1119 290 1056 181 q 1183 505 1183 400 q 1060 773 1183 669 q 771 878 937 878 q 354 736 526 878 q 183 352 183 595 q 327 19 183 138 q 691 -100 471 -100 q 899 -65 790 -100 q 1092 25 1008 -30 l 1145 -49 q 691 -204 947 -204 q 245 -55 430 -204 q 61 348 61 93 q 262 805 61 622 q 740 988 463 988 q 1136 857 965 988 q 1307 507 1307 727 q 1196 206 1307 341 q 922 72 1086 72 l 895 72 q 820 90 848 72 q 778 180 792 109 q 692 99 740 126 q 581 72 645 72 m 695 578 q 554 486 602 578 q 506 294 506 395 q 533 207 506 245 q 607 169 561 169 q 713 212 670 169 q 774 322 757 256 l 811 466 q 775 546 806 515 q 695 578 744 578 "},"Ί":{"x_min":-44,"x_max":729.171875,"ha":736,"o":"m 538 0 q 474 4 526 0 q 400 9 422 9 q 333 5 366 9 q 286 0 300 1 q 370 324 330 162 q 437 631 411 487 q 476 932 463 776 q 547 925 516 927 q 601 922 579 922 q 670 926 631 922 q 729 932 709 930 q 613 485 665 744 q 538 0 562 226 m -44 756 l 159 970 q 202 1004 180 991 q 247 1018 225 1018 q 294 994 273 1018 q 315 945 315 970 q 299 906 315 922 q 257 873 283 890 l 23 756 l -44 756 "},"ö":{"x_min":5,"x_max":724,"ha":781,"o":"m 390 688 q 630 615 536 688 q 724 398 724 542 q 608 108 724 234 q 333 -18 493 -18 q 93 52 181 -18 q 5 272 5 122 q 39 445 5 354 q 172 612 73 536 q 390 688 272 688 m 347 974 q 413 946 385 974 q 441 878 441 918 q 414 811 441 837 q 347 785 388 785 q 279 811 307 785 q 252 878 252 837 q 279 946 252 918 q 347 974 307 974 m 601 974 q 667 946 638 974 q 697 878 697 918 q 670 811 697 837 q 602 785 644 785 q 535 811 563 785 q 508 878 508 837 q 535 945 508 917 q 601 974 562 974 m 213 194 q 235 94 213 140 q 306 49 257 49 q 462 201 411 49 q 513 487 513 353 q 490 586 513 544 q 417 628 468 628 q 302 551 343 628 q 240 378 261 475 q 220 285 228 336 q 213 194 213 235 "},"i":{"x_min":-9,"x_max":387,"ha":393,"o":"m 129 666 q 195 663 153 666 q 245 660 236 660 q 305 663 267 660 q 352 666 343 666 q 272 333 305 490 q 213 0 239 176 q 155 2 196 0 q 110 5 114 5 q 41 2 89 5 q -9 0 -6 0 q 70 351 32 176 q 129 666 107 526 m 277 1018 q 353 986 320 1018 q 387 909 387 954 q 355 834 387 865 q 278 804 323 804 q 203 835 234 804 q 172 911 172 866 q 202 986 172 954 q 277 1018 233 1018 "},"Β":{"x_min":4,"x_max":793,"ha":832,"o":"m 187 931 q 261 925 244 926 q 301 925 279 925 q 415 930 342 925 q 511 935 488 935 q 709 889 626 935 q 793 736 793 843 q 718 568 793 633 q 535 487 644 502 l 535 479 q 669 425 613 479 q 726 293 726 372 q 617 65 726 130 q 333 0 508 0 q 196 3 281 0 q 94 6 110 6 l 4 0 q 86 311 42 136 q 158 649 130 486 q 187 931 187 812 m 572 717 q 540 812 572 776 q 448 849 508 849 l 402 849 q 381 755 391 808 q 366 682 370 703 l 340 531 q 508 573 445 531 q 572 717 572 615 m 287 89 q 443 152 385 89 q 501 315 501 215 q 455 423 501 397 q 323 449 410 449 l 290 287 l 251 90 l 287 89 "},"υ":{"x_min":33,"x_max":743,"ha":810,"o":"m 743 490 q 612 137 743 289 q 283 -14 481 -14 q 108 30 183 -14 q 33 168 33 75 q 75 448 33 248 q 118 670 117 648 q 169 665 139 667 q 225 663 199 663 q 301 663 263 663 q 345 670 331 668 q 270 387 306 539 q 234 153 234 236 q 247 85 234 112 q 299 51 261 57 q 488 161 427 51 q 550 412 550 272 q 537 538 550 478 q 496 657 524 597 q 582 658 535 657 q 706 670 629 659 q 733 585 724 632 q 743 490 743 538 "},"]":{"x_min":-100,"x_max":441.671875,"ha":446,"o":"m 219 -160 l 61 -160 l -100 -160 q -83 -82 -87 -121 q -32 -86 -61 -85 q 22 -88 -4 -88 l 70 -88 q 173 367 122 118 q 267 860 223 616 l 208 863 q 156 860 179 863 q 120 857 133 858 l 135 932 l 280 926 l 441 932 q 318 364 375 639 q 219 -160 262 89 "},"m":{"x_min":-14,"x_max":1130,"ha":1207,"o":"m 126 666 q 176 663 142 666 q 226 661 209 661 q 290 663 245 661 q 336 666 334 666 q 321 620 324 633 q 312 580 317 608 q 421 653 360 625 q 545 681 481 681 q 660 653 613 681 q 717 562 708 625 q 812 647 757 613 q 924 681 866 681 q 1071 642 1013 681 q 1130 519 1130 604 q 1085 240 1130 421 q 1032 0 1041 60 q 967 3 1006 0 q 921 6 928 6 q 858 3 898 6 q 809 0 817 0 q 900 347 881 262 q 919 491 919 433 l 919 517 q 848 572 905 572 q 726 488 763 572 q 665 278 689 405 l 617 0 q 566 2 600 0 q 515 5 533 5 q 449 2 494 5 q 401 0 404 0 q 481 289 455 184 q 508 492 508 394 q 494 549 508 526 q 448 572 480 572 q 287 444 319 572 q 209 0 255 317 q 144 3 183 0 q 98 6 105 6 q 34 3 74 6 q -14 0 -5 0 q 58 317 26 162 q 126 666 90 472 "},"χ":{"x_min":-151,"x_max":736.5,"ha":692,"o":"m 572 666 l 632 663 q 692 666 650 663 q 736 669 735 669 q 628 529 683 601 q 521 387 574 458 l 393 212 l 454 4 l 494 -133 q 541 -263 514 -193 q 582 -370 568 -333 q 455 -365 526 -365 q 332 -373 394 -365 q 324 -260 332 -315 q 301 -137 316 -205 l 258 18 l 128 -162 q 8 -373 64 -250 q -60 -365 -23 -365 q -151 -373 -105 -365 l -53 -254 l 55 -102 l 226 122 l 151 367 q 98 516 122 467 q 21 566 75 566 q -5 561 3 562 l -5 636 q 86 674 53 665 q 153 683 120 683 q 277 589 243 683 q 320 463 310 496 l 360 320 l 472 483 q 572 666 534 573 "},"8":{"x_min":28,"x_max":735,"ha":749,"o":"m 273 506 q 185 570 218 526 q 153 673 153 615 q 232 844 153 780 q 422 908 312 908 q 641 858 547 908 q 735 695 735 809 q 677 555 735 612 q 534 483 619 498 l 533 469 q 636 398 598 449 q 674 278 674 346 q 574 61 674 140 q 332 -18 475 -18 q 118 46 208 -18 q 28 229 28 111 q 96 403 28 334 q 273 494 165 472 l 273 506 m 239 183 q 256 95 239 132 q 319 53 273 58 q 436 136 405 53 q 467 324 467 219 q 446 411 467 375 q 379 448 426 448 q 294 400 321 448 q 254 280 268 353 q 239 183 239 231 m 346 614 q 367 551 350 576 q 422 526 384 526 q 514 598 486 526 q 542 746 542 670 q 522 812 542 785 q 465 840 503 840 q 401 799 430 840 q 359 712 372 758 q 346 614 346 666 "},"ί":{"x_min":-9,"x_max":546.546875,"ha":393,"o":"m 129 666 q 245 660 189 660 q 305 663 267 660 q 352 666 343 666 q 272 333 304 490 q 213 0 239 176 l 110 5 q 41 2 89 5 q -9 0 -6 0 q 70 351 32 176 q 129 666 107 526 m 187 757 l 391 970 q 439 1008 418 998 q 478 1018 460 1018 q 525 994 504 1018 q 546 945 546 970 q 530 906 546 922 q 488 873 514 890 l 252 757 l 187 757 "},"Ζ":{"x_min":-44.4375,"x_max":900,"ha":857,"o":"m -40 60 q 177 333 84 216 q 349 554 270 451 q 552 823 427 656 l 438 825 q 277 818 388 825 q 127 811 166 811 q 144 864 138 837 q 155 932 150 890 q 348 928 215 932 q 543 924 481 924 q 720 928 601 924 q 900 932 840 932 l 894 882 q 565 486 718 675 q 276 111 412 298 q 545 119 355 111 q 801 128 734 128 q 779 0 779 67 q 572 3 709 0 q 365 8 434 8 q 161 3 297 8 q -44 0 25 0 l -40 60 "},"R":{"x_min":0,"x_max":840,"ha":847,"o":"m 188 932 q 251 928 209 932 q 313 925 293 925 q 442 928 365 925 q 530 932 519 932 q 750 881 660 932 q 840 709 840 831 q 767 530 840 591 q 567 456 694 468 q 658 233 610 345 q 763 0 706 121 q 683 7 723 3 q 616 11 642 11 q 545 6 580 11 q 490 0 511 2 q 422 233 454 129 q 353 430 390 337 l 317 430 l 283 266 q 264 140 276 228 q 247 0 253 52 q 171 7 204 4 q 119 10 139 10 q 54 5 90 10 q 0 0 19 1 q 85 322 40 151 q 159 648 130 492 q 188 932 188 804 m 370 508 q 544 557 474 508 q 615 707 615 606 q 573 806 615 771 q 466 842 531 842 l 405 842 l 377 726 l 329 509 l 370 508 "},"×":{"x_min":183.875,"x_max":969.125,"ha":1136,"o":"m 575 500 l 877 800 l 969 706 l 669 406 l 969 106 l 877 13 l 575 313 l 275 13 l 183 106 l 483 406 l 183 706 l 275 800 l 575 500 "},"o":{"x_min":5,"x_max":726,"ha":781,"o":"m 391 688 q 632 615 538 688 q 726 397 726 542 q 610 107 726 233 q 334 -18 494 -18 q 95 53 185 -18 q 5 272 5 125 q 11 350 5 314 q 45 460 17 386 q 173 611 73 535 q 391 688 273 688 m 212 196 q 234 94 212 139 q 306 49 257 49 q 462 201 411 49 q 513 489 513 353 q 490 585 513 543 q 417 627 468 627 q 293 535 329 627 q 241 381 257 444 q 218 280 225 318 q 212 196 212 242 "},"5":{"x_min":4,"x_max":733.15625,"ha":749,"o":"m 95 251 l 122 245 q 158 109 122 167 q 270 51 195 51 q 393 130 356 51 q 430 306 430 209 q 396 428 430 379 q 292 477 363 477 q 226 461 257 477 q 160 418 195 445 q 133 438 151 427 q 106 454 116 448 q 163 669 138 562 q 208 889 188 776 l 556 889 l 733 889 q 700 793 710 834 q 690 708 690 753 l 480 711 l 270 707 l 222 523 q 291 548 245 539 q 374 558 337 558 q 572 499 489 558 q 655 331 655 440 q 550 76 655 170 q 280 -18 445 -18 q 125 2 201 -18 q 4 67 49 22 q 48 153 29 115 q 95 251 67 191 "},"7":{"x_min":33.71875,"x_max":808.71875,"ha":749,"o":"m 33 8 q 230 247 130 124 q 433 502 329 370 l 600 718 l 129 707 q 150 797 142 750 q 158 889 158 844 l 483 888 l 808 888 l 807 843 q 508 454 647 662 q 230 0 368 247 q 180 3 214 0 q 130 8 147 8 q 86 5 111 8 q 37 0 61 2 l 33 8 "},"K":{"x_min":0,"x_max":943.0625,"ha":813,"o":"m 376 705 l 336 504 l 519 670 q 630 776 581 723 q 768 932 679 829 l 850 925 q 900 927 880 925 q 943 932 919 929 l 940 918 q 776 770 866 852 q 640 646 686 688 q 506 516 594 604 q 663 198 581 358 l 768 0 q 704 4 747 0 q 637 8 661 8 q 570 4 616 8 q 501 0 524 0 q 406 227 443 143 q 316 406 369 312 l 286 268 q 245 0 259 127 q 172 7 204 4 q 119 10 140 10 q 55 5 91 10 q 0 0 19 1 q 84 315 40 150 q 157 643 127 481 q 187 931 187 805 q 250 926 204 930 q 311 922 295 922 q 381 926 341 922 q 434 932 420 930 q 402 830 413 877 q 376 705 390 783 "},",":{"x_min":-83.71875,"x_max":273.21875,"ha":375,"o":"m 67 123 q 119 209 92 185 q 178 233 145 233 q 241 212 210 233 q 273 162 273 191 q 255 97 273 131 q 212 34 238 63 l -53 -253 l -83 -227 l 67 123 "},"d":{"x_min":21,"x_max":875,"ha":825,"o":"m 472 91 q 255 -17 391 -17 q 82 57 144 -17 q 21 245 21 131 q 111 544 21 407 q 355 681 201 681 q 558 568 487 681 l 605 768 q 655 1027 634 897 q 758 1019 713 1019 q 875 1027 815 1019 q 783 687 827 866 q 706 334 738 508 q 656 0 673 159 q 600 3 634 0 q 558 6 565 6 q 500 3 536 6 q 458 0 465 0 l 472 91 m 235 192 q 262 109 235 142 q 337 76 289 76 q 481 204 437 76 q 526 457 526 333 q 501 542 526 507 q 426 578 476 578 q 309 500 343 578 q 260 369 275 422 q 240 278 246 316 q 235 192 235 240 "},"¨":{"x_min":79.5625,"x_max":740.671875,"ha":685,"o":"m 433 933 l 278 600 q 234 522 253 546 q 176 499 215 499 q 111 521 143 499 q 79 572 79 543 q 94 625 79 600 q 139 686 110 650 l 404 957 l 433 933 m 740 933 l 586 600 q 543 523 562 548 q 486 499 524 499 q 420 521 453 499 q 387 572 387 543 q 405 628 387 598 q 447 686 422 658 l 712 957 l 740 933 "},"E":{"x_min":-3,"x_max":733.109375,"ha":700,"o":"m 184 932 q 312 928 227 932 q 440 924 397 924 q 587 928 490 924 q 733 932 684 932 q 710 872 717 900 q 702 813 702 845 q 599 825 651 820 q 498 831 547 831 l 399 831 q 382 770 391 804 q 366 705 373 735 l 338 548 l 458 544 q 561 547 497 544 q 638 551 626 551 q 624 494 630 533 q 619 432 619 455 q 529 436 585 432 q 456 441 473 441 l 317 441 l 279 265 q 254 109 262 184 q 443 117 316 109 q 591 126 570 126 q 574 64 583 101 q 562 0 566 27 q 415 4 516 0 q 267 8 313 8 q 133 4 223 8 q -3 0 42 0 q 108 458 60 216 q 184 932 156 700 "},"Y":{"x_min":40.28125,"x_max":813.890625,"ha":706,"o":"m 131 80 l 170 259 l 198 391 q 127 667 165 536 q 40 932 90 798 q 102 926 70 929 q 162 924 134 924 q 227 926 191 924 q 297 931 263 929 q 390 540 330 729 q 527 727 462 630 q 655 931 591 823 q 702 926 675 929 q 736 924 729 924 q 772 926 752 924 q 813 931 793 929 q 426 405 606 672 l 394 267 q 363 108 372 160 q 354 0 354 56 q 289 6 323 2 q 234 10 255 10 q 168 5 205 10 q 111 0 130 1 l 131 80 "},"\"":{"x_min":53,"x_max":399,"ha":453,"o":"m 181 958 l 181 586 l 53 586 l 53 958 l 181 958 m 399 958 l 399 586 l 271 586 l 271 958 l 399 958 "},"ê":{"x_min":3,"x_max":667,"ha":714,"o":"m 336 -18 q 100 60 197 -18 q 3 275 3 139 q 118 563 3 442 q 400 684 233 684 q 594 619 522 684 q 667 432 667 554 q 662 372 667 402 q 655 325 658 342 l 401 325 l 222 325 q 222 300 222 313 q 222 278 222 286 l 222 261 q 272 126 222 174 q 411 79 323 79 q 607 146 515 79 l 622 127 q 569 32 589 73 q 336 -18 451 -18 m 574 756 l 451 886 l 274 756 l 203 756 l 411 1003 l 525 1003 l 631 756 l 574 756 m 365 394 l 461 399 q 477 514 477 448 q 455 588 477 554 q 397 622 433 622 q 291 554 328 622 q 239 398 254 485 l 365 394 "},"δ":{"x_min":5,"x_max":755.28125,"ha":763,"o":"m 168 823 q 259 976 168 927 q 464 1026 350 1026 q 611 1005 542 1026 q 755 945 680 985 q 714 870 724 891 q 690 812 703 849 l 671 812 q 609 904 654 869 q 502 940 563 940 q 408 906 448 940 q 368 820 368 873 q 451 677 368 738 q 614 559 534 616 q 702 359 702 479 q 588 94 702 206 q 324 -18 474 -18 q 93 43 182 -18 q 5 241 5 105 q 97 487 5 386 q 336 620 189 588 q 214 702 260 653 q 168 823 168 751 m 212 178 q 232 86 212 124 q 303 49 253 49 q 443 177 397 49 q 489 424 489 305 q 464 518 489 475 q 392 561 440 561 q 291 495 325 561 q 234 339 257 429 q 212 178 212 250 "},"έ":{"x_min":-5,"x_max":690.84375,"ha":657,"o":"m 545 483 l 531 483 q 485 579 521 546 q 387 612 450 612 q 307 582 340 612 q 275 503 275 552 q 309 425 275 453 q 438 397 344 397 q 426 365 429 378 q 418 315 424 351 q 383 320 401 319 q 345 322 365 322 q 243 287 285 322 q 201 192 201 252 q 244 92 201 130 q 353 54 288 54 q 470 86 418 54 q 556 178 522 119 l 570 172 q 565 143 567 157 q 564 113 564 130 q 567 74 564 98 q 571 44 571 49 q 450 0 518 13 q 310 -14 382 -14 q 90 30 185 -14 q -5 184 -5 74 q 49 307 -5 265 q 188 359 103 349 q 117 414 143 381 q 92 494 92 446 q 173 635 92 588 q 358 683 255 683 q 478 662 419 683 q 590 605 536 642 q 564 542 571 558 q 545 483 557 526 m 329 757 l 534 970 q 577 1004 555 991 q 622 1018 598 1018 q 669 994 649 1018 q 690 945 690 970 q 674 906 690 922 q 631 873 658 890 l 396 757 l 329 757 "},"ω":{"x_min":5,"x_max":1055,"ha":1118,"o":"m 248 -14 q 70 50 136 -14 q 5 227 5 115 q 74 465 5 348 q 250 667 143 582 q 300 664 266 667 q 353 661 335 661 q 416 664 393 661 q 449 667 438 667 q 273 435 338 561 q 209 172 209 310 q 227 87 209 123 q 288 51 245 51 q 409 186 377 51 q 460 512 441 322 l 571 506 l 684 512 q 633 336 653 416 q 600 168 613 256 l 599 132 l 600 96 q 649 51 610 55 q 794 168 753 51 q 836 419 836 286 q 817 542 836 485 q 760 666 798 599 q 812 661 802 662 q 852 661 823 661 q 905 663 870 661 q 957 667 939 666 q 1029 550 1003 610 q 1055 425 1055 490 q 945 121 1055 257 q 673 -14 836 -14 q 555 13 606 -14 q 482 101 503 41 q 380 16 443 46 q 248 -14 317 -14 "},"´":{"x_min":72.21875,"x_max":423.609375,"ha":374,"o":"m 72 516 l 226 848 q 273 929 250 907 q 326 951 297 951 q 393 930 362 951 q 423 877 423 910 q 406 821 423 851 q 365 764 388 791 l 100 492 l 72 516 "},"±":{"x_min":169,"x_max":968,"ha":1136,"o":"m 636 815 l 636 597 l 968 597 l 968 465 l 636 465 l 636 247 l 501 247 l 501 465 l 169 465 l 169 597 l 501 597 l 501 815 l 636 815 m 968 132 l 968 0 l 169 0 l 169 132 l 968 132 "},"|":{"x_min":272,"x_max":412,"ha":683,"o":"m 412 956 l 412 448 l 272 448 l 272 956 l 412 956 m 412 272 l 412 -233 l 272 -233 l 272 272 l 412 272 "},"ϋ":{"x_min":33,"x_max":743,"ha":810,"o":"m 743 489 q 612 137 743 288 q 283 -14 481 -14 q 108 30 183 -14 q 33 167 33 74 q 75 447 33 248 q 118 669 117 646 q 169 665 139 666 q 225 663 199 663 q 301 663 263 663 q 345 669 331 667 q 270 387 306 538 q 234 153 234 235 q 248 85 234 112 q 299 51 262 57 q 488 161 427 51 q 550 412 550 272 q 537 537 550 477 q 496 657 524 597 q 582 657 535 657 q 706 669 629 658 q 733 584 724 631 q 743 489 743 537 m 324 974 q 392 946 366 974 q 418 879 418 919 q 391 812 418 838 q 324 786 365 786 q 256 812 284 786 q 229 880 229 838 q 256 947 229 921 q 324 974 284 974 m 578 974 q 645 946 617 974 q 673 877 673 918 q 646 811 673 836 q 579 786 620 786 q 511 812 539 786 q 484 880 484 838 q 510 947 484 921 q 578 974 536 974 "},"§":{"x_min":25,"x_max":691.671875,"ha":751,"o":"m 74 56 l 99 55 q 175 -69 125 -20 q 299 -118 225 -118 q 382 -93 346 -118 q 419 -23 419 -69 q 330 98 419 40 q 155 211 241 155 q 61 379 61 286 q 101 500 61 446 q 205 587 141 554 q 172 647 184 615 q 161 712 161 679 q 247 884 161 819 q 445 949 334 949 q 572 930 512 949 q 691 872 633 911 q 636 730 655 808 l 612 730 q 550 833 598 793 q 439 874 503 874 q 355 846 395 874 q 315 778 315 819 q 406 664 315 721 q 584 555 497 608 q 681 384 681 480 q 644 270 681 316 q 540 172 608 223 q 572 111 560 141 q 584 45 584 80 q 493 -132 584 -69 q 280 -196 402 -196 q 148 -174 211 -196 q 25 -111 86 -152 q 57 -6 50 -30 q 74 56 65 17 m 541 287 q 394 452 541 361 q 242 549 248 544 q 204 499 209 509 q 199 468 199 488 q 345 316 199 409 q 496 218 491 223 q 541 287 536 244 "},"b":{"x_min":-22,"x_max":754,"ha":825,"o":"m 191 1027 q 305 1019 251 1019 q 418 1027 358 1019 q 395 948 405 988 q 365 824 384 908 l 314 596 q 403 663 355 638 q 508 688 451 688 q 687 611 620 688 q 754 418 754 535 q 648 115 754 247 q 376 -17 543 -17 q 157 86 239 -17 q 98 51 122 70 q 21 -13 73 33 l -22 0 q 105 524 53 281 q 191 1027 157 767 m 242 192 q 269 101 242 141 q 345 62 297 62 q 493 193 446 62 q 541 448 541 324 q 514 550 541 505 q 431 596 487 596 q 326 532 359 596 q 266 363 293 469 q 248 271 255 308 q 242 192 242 235 "},"q":{"x_min":15,"x_max":799.71875,"ha":831,"o":"m 421 -90 l 460 76 q 369 6 426 30 q 251 -18 313 -18 q 78 57 142 -18 q 15 241 15 132 q 107 541 15 404 q 353 678 199 678 q 473 650 417 678 q 567 572 528 622 q 576 618 570 583 q 583 666 581 652 q 648 659 619 662 q 695 656 677 656 q 751 661 720 656 q 799 666 783 665 q 673 150 742 483 q 580 -373 603 -182 q 522 -366 551 -369 q 465 -363 494 -363 q 411 -366 440 -363 q 348 -373 383 -368 q 384 -241 363 -322 q 421 -90 405 -161 m 236 201 q 263 122 236 155 q 338 89 291 89 q 487 213 447 89 q 528 474 528 338 q 501 557 528 522 q 426 593 473 593 q 329 545 367 593 q 267 409 290 498 q 240 282 245 320 q 236 201 236 244 "},"Ω":{"x_min":-68,"x_max":1107.015625,"ha":1147,"o":"m 47 417 q 216 803 47 655 q 629 951 385 951 q 966 849 840 951 q 1093 542 1093 748 q 1031 299 1093 413 q 865 110 970 184 q 972 115 919 110 q 1107 130 1026 120 q 1093 0 1093 69 l 856 4 l 594 0 l 612 91 q 796 274 743 141 q 850 573 850 407 q 793 778 850 695 q 620 862 737 862 q 371 704 447 862 q 296 348 296 546 q 329 186 296 256 q 440 91 362 116 l 420 0 q 248 1 335 0 q 74 4 160 2 l -68 0 q -48 128 -48 66 q 66 118 2 122 q 183 114 130 114 q 81 253 115 180 q 47 417 47 326 "},"ύ":{"x_min":33,"x_max":746.890625,"ha":810,"o":"m 743 490 q 612 137 743 288 q 283 -14 481 -14 q 108 30 183 -14 q 33 167 33 74 q 75 447 33 248 q 118 669 117 647 q 169 665 139 666 q 225 663 199 663 q 301 663 263 663 q 345 669 331 668 q 270 387 306 538 q 234 153 234 235 q 247 85 234 112 q 299 51 261 57 q 488 161 427 51 q 550 412 550 271 q 537 537 550 477 q 496 656 524 597 q 582 657 535 656 q 706 669 629 658 q 733 584 724 631 q 743 490 743 537 m 387 756 l 591 970 q 634 1004 612 991 q 678 1018 656 1018 q 726 994 705 1018 q 746 945 746 970 q 730 906 746 922 q 688 873 714 890 l 454 756 l 387 756 "},"Ö":{"x_min":33,"x_max":1080,"ha":1115,"o":"m 33 394 q 191 787 33 623 q 576 951 349 951 q 941 857 802 951 q 1080 546 1080 763 q 910 147 1080 308 q 502 -14 741 -14 q 374 -5 432 -14 q 236 36 316 2 q 94 172 156 70 q 33 394 33 273 m 576 1253 q 643 1225 615 1253 q 672 1159 672 1198 q 644 1093 672 1122 q 577 1065 617 1065 q 511 1092 540 1065 q 482 1159 482 1120 q 509 1225 482 1197 q 576 1253 537 1253 m 833 1253 q 898 1225 870 1253 q 926 1159 926 1197 q 898 1094 926 1123 q 833 1065 870 1065 q 765 1092 794 1065 q 736 1159 736 1120 q 764 1225 736 1198 q 833 1253 792 1253 m 283 362 q 336 156 283 237 q 509 76 389 76 q 756 231 675 76 q 838 569 838 387 q 780 776 838 691 q 606 861 722 861 q 400 757 477 861 q 303 545 324 653 q 283 362 283 437 "},"z":{"x_min":-36.5,"x_max":669.0625,"ha":669,"o":"m 266 10 q 122 5 228 10 q -36 0 16 0 l -36 69 q 131 260 67 185 q 246 397 195 335 q 382 575 296 459 q 94 559 238 575 l 110 667 q 249 662 156 667 q 389 658 342 658 q 528 662 435 658 q 669 667 621 667 l 669 589 q 449 350 557 475 q 237 93 341 226 l 606 114 q 594 52 598 75 q 591 0 591 30 q 437 5 555 0 q 266 10 320 10 "},"™":{"x_min":137,"x_max":965,"ha":1138,"o":"m 460 975 l 460 900 l 349 900 l 349 611 l 248 611 l 248 900 l 137 900 l 137 975 l 460 975 m 666 975 l 751 751 l 833 974 l 965 975 l 965 611 l 872 611 l 872 883 l 772 611 l 732 611 l 625 883 l 625 611 l 536 611 l 536 975 l 666 975 "},"ή":{"x_min":-14,"x_max":790.171875,"ha":810,"o":"m 126 666 q 176 663 142 666 q 226 661 209 661 q 290 663 245 661 q 336 666 334 666 q 321 620 324 633 q 312 580 317 608 q 423 653 362 626 q 546 681 484 681 q 680 640 627 681 q 733 519 733 599 q 727 461 733 492 q 713 398 721 430 l 656 155 q 597 -118 627 23 q 554 -373 567 -259 q 445 -365 501 -365 q 328 -373 385 -365 q 364 -240 345 -315 q 413 -25 383 -165 l 474 251 q 503 375 488 312 q 518 492 518 438 q 499 549 518 526 q 445 572 480 572 q 292 448 324 572 q 209 0 261 324 q 145 2 190 0 q 98 5 99 5 q 33 2 79 5 q -14 0 -11 0 q 58 317 26 162 q 126 666 90 472 m 430 757 l 634 970 q 678 1005 656 993 q 723 1018 699 1018 q 769 994 748 1018 q 790 945 790 970 q 774 906 790 922 q 733 873 758 890 l 497 757 l 430 757 "},"Θ":{"x_min":33,"x_max":1080,"ha":1117,"o":"m 33 387 q 201 792 33 634 q 617 951 369 951 q 952 850 825 951 q 1080 546 1080 749 q 912 144 1080 303 q 502 -14 745 -14 q 371 -7 424 -14 q 237 33 317 0 q 95 167 157 67 q 33 387 33 266 m 282 359 q 336 155 282 236 q 509 75 391 75 q 757 229 677 75 q 838 569 838 383 q 783 778 838 694 q 607 862 728 862 q 401 757 478 862 q 303 545 324 653 q 282 359 282 437 m 574 526 q 683 529 614 526 q 767 533 753 533 q 751 474 758 506 q 739 407 743 443 q 631 410 699 407 q 549 413 563 413 q 454 411 503 413 q 358 407 405 410 q 371 460 366 436 q 384 533 376 484 q 492 529 424 533 q 574 526 560 526 "},"®":{"x_min":72,"x_max":1065,"ha":1138,"o":"m 1065 490 q 919 139 1065 285 q 569 -6 773 -6 q 220 141 369 -6 q 72 490 72 288 q 220 837 72 690 q 569 985 369 985 q 918 839 771 985 q 1065 490 1065 694 m 155 490 q 277 199 155 323 q 567 75 400 75 q 858 197 734 75 q 983 488 983 320 q 861 781 983 658 q 569 904 739 904 q 277 781 400 904 q 155 490 155 658 m 577 775 q 742 740 670 775 q 814 625 814 706 q 780 527 814 569 q 694 468 747 486 l 814 225 l 667 224 l 560 448 l 497 449 l 497 225 l 361 225 l 361 775 l 577 775 m 497 530 l 562 530 q 643 547 611 530 q 675 608 675 564 q 657 658 675 637 q 609 684 640 680 q 555 690 586 690 l 497 690 l 497 530 "},"É":{"x_min":-3,"x_max":733.109375,"ha":699,"o":"m 184 932 q 311 928 225 932 q 441 924 397 924 q 587 928 490 924 q 733 932 684 932 q 701 810 708 877 q 597 825 645 819 q 498 831 549 831 l 399 831 q 385 781 392 812 q 366 704 377 749 l 338 548 l 456 543 q 547 547 485 543 q 638 551 608 551 q 624 494 631 535 q 617 432 617 452 q 541 437 598 432 q 456 442 484 442 l 318 442 l 280 265 q 266 192 275 244 q 253 109 257 141 q 413 112 344 109 q 591 126 483 116 q 574 66 581 99 q 560 0 566 33 q 415 4 516 0 q 267 8 313 8 q 131 4 222 8 q -3 0 41 0 q 109 456 61 216 q 184 932 157 697 m 350 1037 l 556 1248 q 599 1283 576 1269 q 642 1297 622 1297 q 690 1273 666 1297 q 713 1225 713 1249 q 697 1184 713 1201 q 651 1153 680 1168 l 418 1037 l 350 1037 "},"~":{"x_min":268,"x_max":1092,"ha":1365,"o":"m 1092 938 q 1034 720 1092 806 q 848 635 976 635 q 660 720 758 635 q 518 805 562 805 q 428 757 453 805 q 403 635 403 709 l 268 635 q 327 850 268 763 q 509 938 387 938 q 695 852 598 938 q 847 767 793 767 q 934 815 911 767 q 957 938 957 864 l 1092 938 "},"Ε":{"x_min":-3,"x_max":733.109375,"ha":700,"o":"m 184 932 q 312 928 227 932 q 440 924 397 924 q 587 928 490 924 q 733 932 684 932 q 710 872 717 900 q 702 813 702 845 q 599 825 651 820 q 498 831 547 831 l 399 831 q 382 770 391 804 q 366 705 373 735 l 338 548 l 458 544 q 561 547 497 544 q 638 551 626 551 q 624 494 630 533 q 619 432 619 455 q 529 436 585 432 q 456 441 473 441 l 317 441 l 279 265 q 254 109 262 184 q 443 117 316 109 q 591 126 570 126 q 574 64 583 101 q 562 0 566 27 q 415 4 516 0 q 267 8 313 8 q 133 4 223 8 q -3 0 42 0 q 108 458 60 216 q 184 932 156 700 "},"³":{"x_min":-11,"x_max":442,"ha":493,"o":"m 83 502 q 101 416 83 440 q 155 389 120 391 q 227 427 202 389 q 259 517 253 465 q 238 584 259 554 q 184 615 217 615 l 144 615 q 150 637 148 626 q 151 665 151 648 l 183 661 q 268 695 233 661 q 303 779 303 730 q 284 838 303 813 q 233 863 266 863 q 176 834 196 863 q 150 763 157 806 l 134 750 q 114 785 125 766 q 76 835 102 804 q 161 885 116 870 q 261 901 207 901 q 385 873 329 901 q 442 785 442 846 q 398 688 442 719 q 277 644 354 656 l 277 636 q 372 595 337 623 q 408 511 408 566 q 341 384 408 426 q 183 342 274 342 q 73 357 122 342 q -11 411 25 372 l 66 508 l 83 502 "},"[":{"x_min":-11,"x_max":532.046875,"ha":446,"o":"m 212 932 q 319 932 247 932 q 427 932 391 932 l 532 932 q 523 903 527 922 q 513 854 518 883 q 442 860 462 859 q 409 861 422 861 l 359 861 q 259 415 307 647 q 164 -90 212 183 l 222 -93 q 270 -90 251 -93 q 313 -86 289 -88 l 296 -161 l 148 -154 l -11 -161 q 61 179 27 19 q 136 542 95 339 q 212 932 177 746 "},"L":{"x_min":0,"x_max":587.5,"ha":631,"o":"m 263 110 q 429 118 312 110 q 587 127 547 127 q 568 60 575 91 q 561 0 561 28 q 347 2 497 0 q 187 5 198 5 l 0 0 q 81 338 51 205 q 142 629 112 470 q 187 932 172 787 q 260 925 229 928 q 312 922 291 922 q 379 926 343 922 q 437 932 416 930 q 350 629 390 772 q 286 360 309 486 q 263 110 263 235 "},"σ":{"x_min":5,"x_max":842.5,"ha":801,"o":"m 727 405 q 603 104 727 229 q 305 -21 480 -21 q 86 56 167 -21 q 5 269 5 133 q 116 558 5 431 q 388 686 228 686 q 525 673 420 686 q 670 660 631 660 q 771 663 711 660 q 842 667 831 667 q 826 601 830 619 q 823 553 823 583 l 734 557 l 686 557 q 727 405 727 488 m 212 195 q 234 93 212 138 q 306 48 257 48 q 463 199 412 48 q 514 487 514 350 q 491 584 514 542 q 416 626 469 626 q 303 552 342 626 q 245 398 264 478 q 218 279 225 317 q 212 195 212 241 "},"ζ":{"x_min":16,"x_max":738.21875,"ha":706,"o":"m 227 305 q 329 205 227 226 q 529 169 431 185 q 637 27 637 134 q 584 -114 637 -51 q 447 -237 532 -178 l 393 -191 q 457 -128 438 -151 q 477 -69 477 -104 q 326 3 477 -19 q 95 56 175 26 q 16 201 16 85 q 90 467 16 342 q 259 681 164 591 q 520 906 354 772 q 350 904 410 906 q 208 894 290 902 q 225 957 218 921 q 238 1026 232 994 q 377 1021 283 1026 q 503 1016 470 1016 q 738 1026 629 1016 l 734 951 q 498 769 610 869 q 306 547 386 669 q 227 305 227 426 "},"θ":{"x_min":12,"x_max":702,"ha":738,"o":"m 12 321 q 117 722 12 535 q 421 910 223 910 q 635 814 568 910 q 702 566 702 719 q 595 168 702 354 q 292 -17 488 -17 l 256 -17 q 68 88 125 -4 q 12 321 12 180 m 519 722 q 497 810 519 774 q 427 847 475 847 q 310 751 342 847 q 251 494 277 655 l 327 492 q 406 492 353 492 q 484 492 459 492 q 505 606 491 538 q 519 722 519 675 m 351 418 l 236 414 q 213 287 227 363 q 200 156 200 211 q 220 79 200 110 q 283 48 240 48 q 406 128 381 48 q 466 413 431 209 l 351 418 "},"Ο":{"x_min":34,"x_max":1080,"ha":1117,"o":"m 34 392 q 192 787 34 623 q 575 951 350 951 q 941 857 802 951 q 1080 546 1080 763 q 911 147 1080 308 q 503 -14 743 -14 q 372 -7 427 -14 q 237 34 318 0 q 95 169 156 69 q 34 392 34 270 m 281 360 q 335 156 281 237 q 510 75 389 75 q 758 230 677 75 q 840 570 840 385 q 782 777 840 692 q 607 862 724 862 q 401 757 478 862 q 302 546 324 653 q 281 360 281 438 "},"Γ":{"x_min":-2.78125,"x_max":741.671875,"ha":650,"o":"m 429 922 q 600 927 490 922 q 741 932 709 932 q 718 869 726 897 q 709 813 709 842 q 604 825 655 820 q 502 830 554 830 l 400 830 q 380 761 390 799 q 366 704 370 724 l 323 485 q 279 247 297 364 q 248 0 262 130 q 171 7 205 4 q 118 10 137 10 q 52 5 88 10 q -2 0 16 1 q 66 267 5 35 q 156 650 127 499 q 184 931 184 801 q 429 922 300 922 "}," ":{"x_min":0,"x_max":0,"ha":375},"%":{"x_min":30,"x_max":1036,"ha":1076,"o":"m 296 910 q 444 860 382 910 q 507 726 507 811 q 425 547 507 620 q 238 475 344 475 q 91 524 153 475 q 30 657 30 573 q 54 762 30 702 q 145 866 78 822 q 296 910 213 910 m 126 -123 l 844 1015 l 927 1014 l 211 -123 l 126 -123 m 823 413 q 973 362 911 413 q 1036 226 1036 311 q 954 50 1036 122 q 765 -22 872 -22 q 616 25 676 -22 q 557 160 557 73 q 582 264 557 204 q 672 368 608 324 q 823 413 737 413 m 693 111 q 710 51 693 75 q 761 28 727 28 q 868 112 834 28 q 903 280 903 196 q 900 303 903 291 q 891 329 897 315 q 868 351 886 343 q 832 360 850 360 q 756 318 784 360 q 709 215 729 276 q 697 158 701 179 q 693 111 693 137 m 163 609 q 181 552 163 577 q 231 528 200 528 q 339 611 305 528 q 374 781 374 694 q 354 837 374 813 q 304 861 335 861 q 227 819 254 861 q 185 729 200 777 q 167 661 171 680 q 163 609 163 643 "},"P":{"x_min":0,"x_max":822,"ha":831,"o":"m 188 932 l 309 928 l 472 931 q 722 881 622 931 q 822 694 822 830 q 699 467 822 538 q 413 395 577 395 q 316 401 359 395 l 288 267 q 247 0 258 116 q 173 7 193 5 q 119 9 154 9 q 56 6 88 9 q 0 0 25 2 q 85 322 40 151 q 159 647 130 492 q 188 932 188 802 m 363 490 q 533 552 477 490 q 590 730 590 615 q 548 819 590 789 q 444 849 506 849 l 416 849 q 396 781 404 809 q 384 724 388 754 l 333 491 l 363 490 "},"Ώ":{"x_min":-44,"x_max":1315.71875,"ha":1356,"o":"m 256 417 q 425 803 256 655 q 838 951 594 951 q 1175 849 1049 951 q 1302 542 1302 748 q 1240 299 1302 413 q 1074 110 1179 184 q 1181 115 1128 110 q 1315 130 1235 120 q 1302 0 1302 69 l 1065 4 l 803 0 l 821 91 q 1005 274 951 141 q 1059 573 1059 407 q 1002 778 1059 695 q 829 862 946 862 q 580 704 656 862 q 505 348 505 546 q 538 186 505 256 q 649 91 571 116 l 629 0 q 457 1 544 0 q 283 4 369 2 l 140 0 q 160 128 160 66 q 275 118 211 122 q 392 114 339 114 q 290 253 324 180 q 256 417 256 326 m -44 756 l 160 970 q 203 1004 181 991 q 247 1018 225 1018 q 294 994 274 1018 q 315 945 315 970 q 299 906 315 922 q 257 873 283 890 l 23 756 l -44 756 "},"Έ":{"x_min":-44,"x_max":1011.546875,"ha":978,"o":"m 462 932 q 590 928 505 932 q 718 924 675 924 q 865 928 768 924 q 1011 932 962 932 q 988 872 996 900 q 981 813 981 844 q 877 825 929 819 q 776 831 825 831 l 678 831 q 660 770 669 804 q 644 705 651 736 l 617 549 l 736 545 q 840 548 775 545 q 917 551 904 551 q 903 494 908 533 q 897 432 897 455 q 807 437 864 432 q 734 442 751 442 l 595 442 l 557 265 q 532 109 540 184 q 721 117 594 109 q 869 126 849 126 q 853 64 861 101 q 840 0 844 27 q 693 4 794 0 q 546 8 591 8 q 411 4 501 8 q 275 0 320 0 q 386 458 338 216 q 462 932 434 700 m -44 756 l 160 970 q 203 1004 181 991 q 247 1018 225 1018 q 294 994 274 1018 q 315 945 315 970 q 299 906 315 922 q 257 873 283 890 l 23 756 l -44 756 "},"_":{"x_min":0,"x_max":683.328125,"ha":683,"o":"m 683 -185 l 683 -322 l 0 -322 l 0 -185 l 683 -185 "},"Ϊ":{"x_min":8,"x_max":598,"ha":457,"o":"m 258 0 q 183 4 235 0 q 123 9 132 9 q 69 4 110 9 q 8 0 28 0 q 98 324 51 152 q 172 637 146 495 q 198 932 198 779 q 261 924 230 927 q 323 922 292 922 q 381 924 349 922 q 449 931 413 927 q 334 486 384 737 q 258 0 283 235 m 247 1253 q 313 1225 285 1253 q 342 1159 342 1198 q 315 1092 342 1120 q 249 1065 289 1065 q 180 1092 208 1065 q 152 1159 152 1119 q 181 1225 152 1197 q 247 1253 210 1253 m 502 1253 q 569 1225 541 1253 q 598 1159 598 1198 q 570 1092 598 1119 q 502 1065 543 1065 q 435 1091 461 1065 q 409 1159 409 1117 q 436 1225 409 1198 q 502 1253 463 1253 "},"+":{"x_min":169,"x_max":969,"ha":1138,"o":"m 636 814 l 636 474 l 969 474 l 969 342 l 636 342 l 636 0 l 501 0 l 501 342 l 169 342 l 169 474 l 501 474 l 501 814 l 636 814 "},"½":{"x_min":118,"x_max":1142,"ha":1169,"o":"m 258 801 q 196 781 228 794 q 131 752 163 769 q 128 778 131 766 q 118 809 124 790 q 238 842 190 826 q 402 901 285 858 l 426 890 q 357 645 385 765 q 305 390 328 525 l 227 394 l 155 390 q 221 610 194 509 q 258 801 248 711 m 1011 1015 l 254 -123 l 172 -124 l 923 1014 l 1011 1015 m 674 41 q 905 211 811 129 q 1000 383 1000 294 q 981 440 1000 416 q 930 465 962 465 q 868 431 890 465 q 847 356 847 398 l 843 348 l 758 422 q 845 486 794 465 q 957 508 897 508 q 1084 478 1027 508 q 1142 383 1142 448 q 1096 274 1142 317 q 843 97 1050 230 q 992 100 887 97 q 1103 103 1097 103 q 1088 55 1096 86 q 1075 0 1080 25 q 972 0 1041 0 q 868 0 902 0 q 765 0 834 0 q 661 0 695 0 q 674 41 674 16 "},"Ρ":{"x_min":0,"x_max":822,"ha":831,"o":"m 188 932 l 309 928 l 472 931 q 722 881 622 931 q 822 694 822 830 q 699 467 822 538 q 413 395 577 395 q 316 401 359 395 l 288 267 q 247 0 258 116 q 173 7 193 5 q 119 9 154 9 q 56 6 88 9 q 0 0 25 2 q 85 322 40 151 q 159 647 130 492 q 188 932 188 802 m 363 490 q 533 552 477 490 q 590 730 590 615 q 548 819 590 789 q 444 849 506 849 l 416 849 q 396 781 404 809 q 384 724 388 754 l 333 491 l 363 490 "},"'":{"x_min":70.828125,"x_max":423.609375,"ha":375,"o":"m 70 518 l 226 849 q 273 928 250 906 q 326 951 297 951 q 393 931 363 951 q 423 878 423 912 q 406 821 423 851 q 363 765 388 791 l 100 494 l 70 518 "},"T":{"x_min":53,"x_max":809.9375,"ha":696,"o":"m 264 573 l 310 828 q 177 823 266 828 q 53 818 87 818 q 69 877 64 837 q 75 932 75 916 q 249 927 122 932 q 440 922 376 922 q 633 927 504 922 q 809 932 762 932 q 796 895 801 915 q 789 855 790 874 l 789 815 q 548 828 669 828 q 448 420 490 633 q 384 0 407 208 q 315 6 353 2 q 257 10 278 10 q 188 5 226 10 q 129 0 150 1 q 198 256 168 126 q 264 573 228 386 "},"Φ":{"x_min":34,"x_max":1080,"ha":1117,"o":"m 572 -25 q 508 -17 542 -20 q 450 -14 474 -14 q 386 -18 428 -14 q 338 -25 345 -23 l 370 81 q 134 185 234 100 q 34 401 34 270 q 178 731 34 608 q 529 854 322 854 l 539 961 q 594 951 568 954 q 649 949 620 949 q 697 951 672 949 q 772 961 721 954 l 739 851 l 793 841 q 998 736 916 819 q 1080 531 1080 652 q 932 205 1080 333 q 584 77 784 77 q 577 25 581 58 q 572 -25 572 -8 m 858 568 q 821 694 858 639 q 716 749 784 749 q 655 477 685 619 q 596 176 625 334 q 796 302 735 191 q 858 568 858 412 m 253 382 q 286 247 253 303 q 393 185 319 191 q 454 457 425 316 q 513 758 483 598 q 317 633 382 741 q 253 382 253 525 "},"j":{"x_min":-189,"x_max":380,"ha":394,"o":"m 266 1018 q 346 986 313 1018 q 380 908 380 954 q 347 829 380 862 q 269 797 314 797 q 190 828 223 797 q 158 906 158 859 q 188 986 158 954 q 266 1018 219 1018 m -189 -307 q -64 -267 -94 -307 q -18 -151 -33 -227 q 30 108 -4 -75 q 89 423 66 291 q 127 666 113 555 q 192 662 153 666 q 235 659 231 659 q 300 662 262 659 q 345 666 339 666 q 292 441 317 556 q 244 198 267 326 l 210 20 q 102 -281 173 -191 q -165 -371 31 -371 l -189 -307 "},"Σ":{"x_min":-90.28125,"x_max":838.890625,"ha":843,"o":"m 813 814 q 696 819 775 814 q 591 824 618 824 l 423 824 q 497 672 461 743 q 586 512 534 601 q 356 312 469 416 l 226 194 l 472 194 l 733 203 q 705 85 718 157 q 691 0 693 13 l 333 4 l -90 0 l -77 56 q 145 258 54 173 q 354 461 237 343 q 127 866 252 658 l 144 932 q 363 928 230 932 q 517 925 495 925 q 706 928 591 925 q 838 932 820 932 q 820 873 827 902 q 813 814 813 843 "},"1":{"x_min":137,"x_max":626,"ha":749,"o":"m 357 736 q 250 693 298 713 q 157 650 202 673 q 153 688 157 670 q 137 747 149 705 q 588 914 363 816 l 626 894 q 514 446 560 659 q 433 0 467 233 q 372 3 415 0 q 309 8 328 8 q 255 5 281 8 q 192 0 228 2 q 265 250 232 131 q 322 495 297 369 q 357 736 347 620 "},"ä":{"x_min":-9,"x_max":662,"ha":714,"o":"m 175 -14 q 43 32 95 -14 q -9 159 -9 79 q 61 320 -9 267 q 220 382 132 372 q 366 401 307 392 q 419 486 419 417 q 386 561 419 536 q 300 586 353 586 q 135 505 198 586 l 119 501 q 139 611 134 558 q 266 662 203 643 q 389 682 328 682 q 549 635 483 682 q 615 500 615 588 q 609 454 612 476 q 601 409 606 432 l 560 232 q 544 162 552 198 q 536 95 536 126 q 552 68 536 79 q 585 57 567 57 q 606 59 595 57 q 623 63 617 61 l 620 15 q 493 -10 561 -10 q 404 13 439 -10 q 353 88 368 37 q 281 11 327 37 q 175 -14 235 -14 m 314 974 q 381 946 353 974 q 409 878 409 918 q 382 811 409 837 q 314 785 356 785 q 246 811 274 785 q 219 878 219 837 q 246 946 219 918 q 314 974 274 974 m 568 974 q 634 946 606 974 q 662 878 662 918 q 636 811 662 837 q 570 785 611 785 q 501 811 529 785 q 474 878 474 837 q 501 946 474 918 q 568 974 529 974 m 190 177 q 206 115 190 141 q 256 90 223 90 q 357 195 336 90 q 384 328 378 300 q 250 291 303 328 q 190 177 196 254 "},"<":{"x_min":176,"x_max":961.453125,"ha":1138,"o":"m 961 651 l 364 405 l 961 163 l 961 16 l 176 341 l 176 472 l 961 796 l 961 651 "},"£":{"x_min":-27.78125,"x_max":761.109375,"ha":749,"o":"m 154 267 q 167 344 163 303 q 170 437 170 385 q 106 433 151 437 q 59 429 61 429 q 76 515 72 470 q 124 515 93 515 q 172 515 156 515 q 278 805 194 699 q 537 911 362 911 q 659 898 604 911 q 761 854 713 886 q 698 675 723 765 l 672 679 q 640 795 672 748 q 541 842 608 842 q 407 745 437 842 q 377 515 377 649 q 494 519 408 515 q 615 524 580 524 q 600 477 605 501 q 595 424 595 453 q 370 437 486 437 q 320 290 359 353 q 212 183 281 227 l 530 188 l 686 196 q 650 95 663 144 q 637 -3 637 47 l 320 7 q 115 3 240 7 q -27 0 -9 0 q -13 72 -22 22 q 0 156 -4 123 q 98 189 58 163 q 154 267 138 215 "},"¹":{"x_min":119,"x_max":443,"ha":493,"o":"m 267 794 q 202 774 234 787 q 135 743 169 761 q 119 802 130 770 q 270 849 201 826 q 418 903 340 872 l 443 891 q 315 356 366 635 l 234 356 q 197 356 215 356 q 157 356 180 356 q 232 607 208 518 q 267 794 257 697 "},"t":{"x_min":34,"x_max":475.671875,"ha":442,"o":"m 95 593 q 59 593 77 593 q 34 589 43 589 q 49 670 49 625 q 114 665 77 665 l 146 665 l 171 840 q 272 869 227 852 q 386 917 318 886 l 402 898 q 365 754 368 769 q 347 667 361 739 l 393 665 l 475 669 q 464 629 468 651 q 460 584 460 606 q 364 589 411 589 l 332 589 q 255 255 270 328 q 241 126 241 183 q 263 78 241 93 q 324 63 286 63 q 356 64 343 63 q 384 69 368 66 l 364 12 q 211 -14 295 -14 q 86 26 135 -14 q 37 143 37 66 q 66 355 37 232 q 125 592 96 479 l 95 593 "},"λ":{"x_min":-75,"x_max":582,"ha":654,"o":"m 187 273 q 125 143 154 209 q 69 0 97 76 l 5 8 q -34 5 -11 8 q -75 0 -56 2 q 269 631 115 323 q 234 846 254 778 q 130 915 215 915 q 107 911 120 915 q 86 906 94 908 l 81 988 q 163 1014 118 1003 q 248 1026 208 1026 q 393 946 356 1026 q 447 707 429 866 q 500 364 465 548 q 582 0 536 180 l 469 8 q 409 5 442 8 q 347 0 376 2 q 340 148 347 86 q 294 475 334 211 l 187 273 "},"ù":{"x_min":25,"x_max":772.21875,"ha":808,"o":"m 630 0 q 572 2 613 0 q 527 5 530 5 q 465 2 509 5 q 418 0 422 0 q 443 86 436 38 q 333 13 395 40 q 206 -14 272 -14 q 75 27 126 -14 q 25 148 25 69 q 29 207 25 176 q 43 274 34 238 l 77 426 q 100 530 90 476 q 122 668 109 584 l 230 664 l 348 668 q 270 375 301 501 q 239 180 239 249 q 256 117 239 141 q 311 94 273 94 q 349 105 331 94 q 468 245 438 150 q 517 501 498 340 l 546 668 l 658 664 l 772 668 q 630 0 687 341 m 540 757 l 349 875 q 306 908 322 890 q 291 951 291 926 q 312 997 291 978 q 359 1017 333 1017 q 400 1005 384 1017 q 440 966 416 993 l 607 757 l 540 757 "},"W":{"x_min":51,"x_max":1306.5625,"ha":1232,"o":"m 51 932 q 112 929 83 932 q 183 923 141 926 q 242 926 209 923 q 307 932 275 929 q 322 627 307 791 q 355 307 338 462 q 508 606 434 453 q 658 932 581 760 l 733 926 q 785 929 767 926 q 813 932 804 932 q 856 601 838 733 q 899 312 874 469 q 1037 619 973 465 q 1158 932 1101 773 q 1230 923 1194 927 q 1267 927 1242 923 q 1306 932 1292 932 q 1099 484 1207 727 q 888 0 991 241 q 808 8 848 3 q 767 5 789 8 q 724 0 745 2 q 687 318 705 188 q 634 615 669 448 q 536 423 595 541 q 428 201 477 305 q 334 0 378 98 q 283 4 312 1 q 248 8 253 8 q 199 4 228 8 q 166 0 169 0 q 150 290 166 147 q 105 604 134 433 q 51 932 77 776 "},"ï":{"x_min":-9,"x_max":502,"ha":393,"o":"m 131 667 q 197 663 156 667 q 244 660 239 660 q 306 663 268 660 q 350 667 344 667 q 271 330 307 505 q 214 0 235 155 q 161 2 196 0 q 110 5 127 5 l -9 0 q 49 252 21 129 q 92 452 77 376 q 131 667 107 527 m 153 974 q 220 946 192 974 q 248 878 248 918 q 221 811 248 837 q 156 785 195 785 q 86 811 114 785 q 59 878 59 837 q 86 946 59 918 q 153 974 114 974 m 408 974 q 474 946 446 974 q 502 878 502 918 q 476 811 502 837 q 410 785 451 785 q 341 811 369 785 q 314 878 314 837 q 341 946 314 918 q 408 974 369 974 "},">":{"x_min":176.078125,"x_max":963,"ha":1138,"o":"m 962 472 l 963 342 l 176 16 l 176 163 l 772 407 l 176 651 l 176 796 l 962 472 "},"v":{"x_min":21,"x_max":693.234375,"ha":654,"o":"m 211 4 l 121 0 q 21 667 91 310 q 82 660 59 663 q 130 658 105 658 q 187 661 157 658 q 249 666 218 664 q 259 484 249 560 q 305 198 269 408 l 419 406 q 479 524 447 456 q 546 666 511 591 l 616 661 l 693 666 q 549 436 619 552 q 423 218 479 320 q 314 0 366 115 l 211 4 "},"τ":{"x_min":-37,"x_max":638,"ha":583,"o":"m 21 448 l 3 448 q -12 522 -5 494 q -37 583 -20 551 q 103 638 29 620 q 256 657 176 657 l 478 657 q 566 662 510 657 q 638 667 622 667 q 614 550 619 608 q 488 558 551 558 l 426 558 q 314 0 356 283 l 210 5 q 143 2 190 5 q 92 0 96 0 q 141 202 119 106 q 186 412 163 297 l 213 558 q 87 526 137 548 q 21 448 37 504 "},"û":{"x_min":25,"x_max":772.21875,"ha":808,"o":"m 630 0 q 572 2 613 0 q 527 5 530 5 q 465 2 509 5 q 418 0 422 0 q 443 86 436 38 q 333 13 395 40 q 206 -14 272 -14 q 75 27 126 -14 q 25 148 25 69 q 29 207 25 176 q 43 274 34 238 l 77 426 q 100 530 90 476 q 122 668 109 584 l 230 664 l 348 668 q 270 375 301 501 q 239 180 239 249 q 256 117 239 141 q 311 94 273 94 q 349 105 331 94 q 468 245 438 150 q 517 501 498 340 l 546 668 l 658 664 l 772 668 q 630 0 687 341 m 615 756 l 492 886 l 313 756 l 244 756 l 451 1003 l 565 1003 l 672 756 l 615 756 "},"ξ":{"x_min":4,"x_max":720.28125,"ha":728,"o":"m 434 531 q 277 480 344 531 q 210 344 210 430 q 325 214 210 247 q 538 169 431 191 q 655 26 655 132 q 603 -118 655 -63 q 477 -238 551 -173 l 424 -197 q 479 -131 464 -154 q 494 -74 494 -109 q 339 11 494 -24 q 94 94 185 47 q 4 279 4 141 q 81 474 4 405 q 296 581 159 542 q 192 661 232 611 q 153 776 153 711 q 252 960 153 895 q 477 1026 351 1026 q 600 1010 538 1026 q 720 965 663 994 q 686 903 699 928 q 655 825 674 877 l 638 825 q 592 913 629 880 q 496 947 554 947 q 391 890 426 947 q 356 761 356 834 q 396 652 356 692 q 505 613 437 613 l 530 613 q 552 613 541 613 q 575 613 568 613 l 550 517 q 482 527 509 524 q 434 531 455 531 "},"&":{"x_min":50,"x_max":913.890625,"ha":976,"o":"m 572 83 q 317 -18 463 -18 q 129 45 209 -18 q 50 215 50 109 q 122 401 50 323 q 311 542 194 480 q 259 648 272 609 q 247 726 247 687 q 324 887 247 824 q 502 951 401 951 q 662 905 594 951 q 731 774 731 860 q 677 640 731 689 q 528 550 623 591 q 689 273 605 402 q 770 388 740 327 q 815 531 800 450 l 836 534 q 877 465 865 484 q 913 421 890 446 q 726 211 835 304 l 863 0 l 776 8 q 691 6 726 8 q 617 0 657 5 l 572 83 m 623 781 q 597 848 623 823 q 529 873 572 873 q 460 842 484 873 q 436 766 436 811 q 452 689 436 730 q 493 612 468 649 q 584 684 546 638 q 623 781 623 730 m 342 474 q 264 404 293 445 q 235 307 235 363 q 290 173 235 237 q 416 110 345 110 q 538 152 481 110 q 342 474 432 316 "},"Λ":{"x_min":-91,"x_max":784,"ha":856,"o":"m 436 640 q 287 411 349 511 q 173 218 225 312 q 67 0 121 123 l -6 6 q -56 3 -25 6 q -91 0 -88 0 q 202 461 57 222 q 479 943 346 700 q 513 934 495 939 q 554 930 532 930 q 592 935 568 930 q 628 943 615 940 q 784 0 674 482 l 652 6 l 520 0 q 508 212 520 112 q 487 376 497 312 q 436 640 476 440 "},"I":{"x_min":8.328125,"x_max":451.390625,"ha":458,"o":"m 261 0 q 196 4 248 0 q 122 9 144 9 q 55 5 88 9 q 8 0 22 1 q 93 324 52 162 q 159 632 133 487 q 198 932 186 776 q 270 925 238 928 q 323 922 301 922 q 393 926 354 922 q 451 932 431 930 q 336 485 387 744 q 261 0 284 226 "},"G":{"x_min":36,"x_max":1034.15625,"ha":1025,"o":"m 716 422 q 780 415 754 418 q 833 413 806 413 q 894 416 858 413 q 956 422 930 419 q 905 236 927 338 q 866 29 883 133 q 695 -2 781 8 q 522 -14 609 -14 q 170 88 304 -14 q 36 402 36 190 q 217 801 36 651 q 652 951 399 951 q 852 932 757 951 q 1034 869 948 913 l 942 663 l 921 670 q 829 814 907 768 q 646 861 752 861 q 373 711 467 861 q 280 368 280 561 q 350 157 280 243 q 544 71 420 71 q 594 75 571 71 q 649 87 617 79 q 716 422 694 255 "},"ΰ":{"x_min":33,"x_max":782,"ha":810,"o":"m 743 490 q 612 137 743 289 q 283 -14 481 -14 q 108 30 183 -14 q 33 168 33 74 q 75 448 33 248 q 118 670 117 647 q 169 666 139 667 q 225 665 199 665 q 301 665 263 665 q 345 670 331 668 q 270 387 306 539 q 234 153 234 236 q 248 85 234 112 q 300 51 262 57 q 489 161 428 51 q 550 412 550 272 q 537 537 550 478 q 496 657 524 597 q 582 658 535 657 q 706 670 629 658 q 733 585 724 632 q 743 490 743 537 m 228 963 q 285 939 261 963 q 309 881 309 915 q 288 821 309 845 q 230 798 267 798 q 171 821 196 798 q 146 881 146 845 q 170 938 146 914 q 228 963 194 963 m 323 756 l 432 930 q 481 996 460 974 q 532 1018 502 1018 q 584 966 584 1018 q 569 923 584 944 q 532 886 555 902 l 377 756 l 323 756 m 701 963 q 758 939 734 963 q 782 881 782 915 q 760 823 782 849 q 704 798 738 798 q 645 822 672 798 q 618 881 618 846 q 641 939 618 915 q 701 963 665 963 "},"`":{"x_min":79.5625,"x_max":433.71875,"ha":375,"o":"m 433 933 l 278 600 q 235 528 255 553 q 176 499 214 503 q 110 519 140 499 q 79 573 79 540 q 94 625 79 601 q 139 686 108 648 l 404 957 l 433 933 "},"Υ":{"x_min":40.28125,"x_max":813.890625,"ha":706,"o":"m 131 80 l 170 259 l 198 391 q 127 667 165 536 q 40 932 90 798 q 102 926 70 929 q 162 924 134 924 q 227 926 191 924 q 297 931 263 929 q 390 540 330 729 q 527 727 462 630 q 655 931 591 823 q 702 926 675 929 q 736 924 729 924 q 772 926 752 924 q 813 931 793 929 q 426 405 606 672 l 394 267 q 363 108 372 160 q 354 0 354 56 q 289 6 323 2 q 234 10 255 10 q 168 5 205 10 q 111 0 130 1 l 131 80 "},"r":{"x_min":-11.5,"x_max":574.609375,"ha":585,"o":"m 126 666 q 187 663 146 666 q 232 659 227 659 q 292 662 260 659 q 328 666 317 666 q 308 599 317 631 q 287 519 299 567 l 302 519 q 406 645 357 612 q 507 679 455 679 q 538 677 527 679 q 574 672 549 676 q 549 571 559 623 q 539 469 539 519 q 445 487 489 487 q 234 224 274 487 q 213 0 219 58 q 148 3 187 0 q 103 6 110 6 q 38 3 80 6 q -11 0 -3 0 q 63 346 28 180 q 126 666 98 512 "},"x":{"x_min":-105,"x_max":651.953125,"ha":631,"o":"m -17 4 q -70 1 -42 4 q -105 0 -98 0 q 43 152 -27 74 l 201 318 q 56 667 127 508 q 115 661 83 664 q 171 658 146 658 q 228 661 195 658 q 287 666 262 664 l 350 484 q 412 558 357 493 q 495 666 467 623 l 568 658 q 609 661 585 658 q 651 666 633 663 l 534 547 l 387 387 l 454 209 l 539 0 q 481 3 518 0 q 421 8 443 8 q 359 3 400 8 q 296 0 317 0 l 232 215 q 146 113 193 170 q 54 0 98 56 l -17 4 "},"è":{"x_min":3,"x_max":667,"ha":714,"o":"m 336 -18 q 100 60 197 -18 q 3 274 3 138 q 118 562 3 441 q 400 683 233 683 q 594 618 522 683 q 667 432 667 553 q 662 372 667 402 q 655 325 658 342 l 401 325 l 222 325 q 222 299 222 313 q 222 277 222 285 l 222 260 q 272 124 222 172 q 411 76 323 76 q 607 146 515 76 l 622 127 q 569 32 589 73 q 336 -18 451 -18 m 499 757 l 308 875 q 266 910 280 891 q 251 953 251 929 q 273 998 251 979 q 319 1017 294 1017 q 360 1005 344 1017 q 400 966 376 993 l 567 757 l 499 757 m 365 394 l 461 399 q 477 513 477 448 q 455 588 477 554 q 397 622 433 622 q 291 553 328 622 q 239 398 254 485 l 365 394 "},"μ":{"x_min":-86.5,"x_max":773.21875,"ha":810,"o":"m 287 -14 q 243 -2 266 -14 q 205 28 220 9 q 165 -167 181 -85 q 132 -366 149 -250 q 78 -361 96 -362 q 23 -359 60 -359 q -15 -360 2 -359 q -86 -366 -33 -361 q 32 147 -33 -191 q 117 670 99 486 q 171 665 139 667 q 230 663 202 663 q 298 667 251 663 q 349 670 346 670 q 271 381 303 511 q 239 182 239 251 q 257 119 239 143 q 312 96 274 96 q 403 130 332 96 q 503 360 474 165 q 548 670 532 556 q 603 667 566 670 q 659 663 641 663 q 725 667 680 663 q 773 670 770 670 q 696 344 731 510 q 630 1 662 179 l 530 6 l 420 1 q 444 87 438 45 q 377 15 419 44 q 287 -14 335 -14 "},"÷":{"x_min":169,"x_max":968,"ha":1136,"o":"m 668 665 q 638 596 668 625 q 566 567 609 567 q 496 596 524 567 q 468 667 468 626 q 497 737 468 708 q 568 767 526 767 q 638 737 609 767 q 668 665 668 708 m 968 474 l 968 342 l 169 342 l 169 474 l 968 474 m 668 146 q 638 74 668 105 q 568 44 609 44 q 498 72 528 44 q 468 142 468 100 q 498 214 468 184 q 568 244 528 244 q 638 216 609 244 q 668 146 668 188 "},"h":{"x_min":-7,"x_max":733,"ha":810,"o":"m 199 1025 l 302 1016 q 358 1019 327 1016 q 416 1025 390 1022 l 368 827 l 316 580 q 421 654 372 627 q 527 681 470 681 q 674 640 616 681 q 733 514 733 600 q 711 361 733 457 q 665 160 689 266 q 635 0 641 53 q 574 2 617 0 q 528 5 530 5 q 462 2 509 5 q 413 0 415 0 q 489 298 460 176 q 519 488 519 421 q 502 547 519 522 q 451 573 485 573 q 410 561 428 573 q 294 429 324 518 q 216 0 263 340 q 153 3 192 0 q 105 6 113 6 q 41 3 81 6 q -7 0 1 0 q 106 529 52 266 q 199 1025 161 791 "},".":{"x_min":0,"x_max":235,"ha":375,"o":"m 118 217 q 203 184 172 217 q 235 98 235 151 q 203 15 235 47 q 118 -17 171 -17 q 31 13 63 -17 q 0 98 0 44 q 32 184 0 151 q 118 217 65 217 "},"φ":{"x_min":5,"x_max":972,"ha":1032,"o":"m 5 275 q 117 555 5 447 q 399 664 230 664 l 402 583 q 248 475 278 583 q 206 233 218 367 q 242 116 206 158 q 342 60 279 75 l 405 375 q 488 600 434 524 q 673 676 542 676 q 888 589 805 676 q 972 372 972 503 q 841 81 972 180 q 514 -18 710 -18 q 475 -202 495 -105 q 455 -374 455 -298 l 374 -365 q 246 -373 311 -365 q 330 -7 295 -181 q 102 70 199 -7 q 5 275 5 147 m 527 56 q 713 168 657 56 q 769 428 769 281 q 752 542 769 492 q 685 593 735 593 q 637 564 653 593 q 614 494 621 535 l 527 56 "},";":{"x_min":-75,"x_max":372,"ha":458,"o":"m 253 683 q 337 649 302 683 q 372 567 372 616 q 337 484 372 519 q 253 450 302 450 q 171 483 205 450 q 137 566 137 517 q 170 648 137 613 q 253 683 203 683 m 75 123 q 122 205 101 177 q 186 233 144 233 q 247 212 218 233 q 280 162 277 191 q 264 97 280 127 q 220 34 248 66 l -45 -254 l -75 -227 l 75 123 "},"f":{"x_min":0,"x_max":598.609375,"ha":449,"o":"m 48 600 l 65 669 l 155 669 q 275 917 186 809 q 494 1026 363 1026 q 545 1019 520 1026 q 598 999 570 1013 q 537 825 563 917 l 519 827 q 483 880 505 860 q 429 901 461 901 q 369 862 386 901 q 352 774 352 823 l 358 669 l 490 669 q 479 637 483 652 q 473 600 476 621 l 347 600 q 277 292 305 431 q 230 0 250 153 q 165 3 206 0 q 115 6 123 6 q 52 3 94 6 q 0 0 11 0 q 70 286 33 134 q 144 600 108 438 l 48 600 "},"A":{"x_min":-93,"x_max":786,"ha":856,"o":"m 519 34 q 511 147 519 88 q 496 265 503 206 q 341 275 416 275 q 265 270 306 275 q 201 265 224 266 q 115 111 137 151 q 61 0 94 70 l -8 5 q -44 3 -22 5 q -93 0 -66 1 q 97 292 6 149 q 274 577 187 434 q 491 938 362 721 l 555 933 q 589 935 570 933 q 617 938 608 936 l 665 618 q 701 394 681 514 q 739 188 722 273 q 786 0 756 102 q 701 10 734 7 q 648 13 669 13 q 598 10 621 13 q 519 0 576 7 l 519 34 m 333 363 l 485 363 q 468 529 473 478 q 448 671 462 580 q 350 518 404 603 q 257 365 295 433 l 333 363 "},"6":{"x_min":43,"x_max":678,"ha":749,"o":"m 445 536 q 609 467 541 536 q 678 304 678 399 q 581 70 678 162 q 343 -22 484 -22 q 122 62 201 -22 q 43 290 43 147 q 173 716 43 525 q 527 907 304 907 q 590 903 563 907 q 658 888 617 900 l 678 766 l 658 762 q 601 816 633 797 q 527 835 569 835 q 369 732 420 835 q 307 500 318 629 q 445 536 376 536 m 246 171 q 265 84 246 121 q 332 47 284 47 q 430 140 399 47 q 461 323 461 234 q 441 412 461 374 q 376 451 422 451 q 292 396 319 451 q 254 269 265 341 q 247 223 248 245 q 246 171 246 201 "},"ϊ":{"x_min":-9,"x_max":516,"ha":393,"o":"m 130 667 q 245 660 189 660 q 305 663 267 660 q 352 667 343 667 q 272 333 305 490 q 213 0 240 176 l 110 5 q 41 2 89 5 q -9 0 -6 0 q 70 351 32 176 q 130 667 108 526 m 167 974 q 235 946 209 974 q 261 879 261 919 q 234 812 261 838 q 167 786 208 786 q 99 812 127 786 q 72 880 72 838 q 99 947 72 921 q 167 974 127 974 m 421 974 q 488 946 460 974 q 516 877 516 918 q 489 811 516 836 q 422 786 463 786 q 354 812 382 786 q 327 880 327 838 q 353 947 327 921 q 421 974 379 974 "},"π":{"x_min":-25,"x_max":970.828125,"ha":926,"o":"m 34 448 l 13 448 q -25 583 13 512 q 120 639 40 622 q 285 656 199 656 l 488 656 l 783 656 q 867 658 820 656 q 970 667 913 660 q 951 610 956 635 q 945 550 945 585 q 880 557 911 556 q 807 559 850 559 l 787 559 q 728 285 755 425 q 679 0 701 146 l 576 5 q 505 2 554 5 q 453 0 456 0 q 548 413 503 190 l 576 559 l 411 559 q 348 283 377 428 q 298 0 319 139 l 195 5 q 125 2 173 5 q 75 0 77 0 q 127 211 102 106 q 170 412 152 315 l 197 558 q 92 522 136 548 q 34 448 47 497 "},"ά":{"x_min":5,"x_max":850.828125,"ha":890,"o":"m 277 -14 q 78 71 152 -14 q 5 284 5 156 q 127 566 5 449 q 414 683 249 683 q 653 538 581 683 q 687 666 674 600 l 769 663 l 850 666 q 788 520 816 590 q 718 340 760 451 q 797 1 744 170 l 634 2 l 564 1 q 557 68 564 34 q 548 122 551 102 q 427 21 495 56 q 277 -14 359 -14 m 387 757 l 591 970 q 634 1004 611 991 q 678 1018 656 1018 q 725 994 705 1018 q 746 945 746 970 q 730 906 746 922 q 688 873 714 890 l 454 757 l 387 757 m 425 627 q 257 475 307 627 q 208 173 208 323 q 230 83 208 117 q 307 50 253 50 q 478 169 419 62 q 537 396 537 276 q 529 502 537 456 q 507 576 521 549 q 467 618 493 603 q 425 627 448 627 "},"O":{"x_min":34,"x_max":1080,"ha":1117,"o":"m 34 392 q 192 787 34 623 q 575 951 350 951 q 941 857 802 951 q 1080 546 1080 763 q 911 147 1080 308 q 503 -14 743 -14 q 372 -7 427 -14 q 237 34 318 0 q 95 169 156 69 q 34 392 34 270 m 281 360 q 335 156 281 237 q 510 75 389 75 q 758 230 677 75 q 840 570 840 385 q 782 777 840 692 q 607 862 724 862 q 401 757 478 862 q 302 546 324 653 q 281 360 281 438 "},"n":{"x_min":-14,"x_max":733,"ha":810,"o":"m 126 666 q 176 663 142 666 q 226 661 209 661 q 290 663 245 661 q 336 666 334 666 q 321 620 324 633 q 312 580 317 608 q 423 654 362 627 q 548 681 484 681 q 681 639 630 681 q 733 519 733 598 q 731 488 733 501 q 721 432 730 475 l 676 240 q 657 148 671 222 q 633 0 642 74 q 580 2 615 0 q 527 5 545 5 q 460 2 508 5 q 409 0 413 0 q 481 275 445 126 q 518 488 518 425 q 499 548 518 524 q 445 573 481 573 q 354 536 424 573 q 254 307 283 500 q 209 0 224 113 q 144 3 183 0 q 98 6 105 6 q 34 3 74 6 q -14 0 -5 0 q 58 317 26 162 q 126 666 90 472 "},"3":{"x_min":-16,"x_max":673,"ha":749,"o":"m 125 248 q 151 112 125 168 q 250 56 177 56 q 361 130 326 56 q 396 289 396 204 q 365 391 396 347 q 279 435 335 435 l 263 435 l 221 435 q 231 517 231 473 q 261 514 240 515 q 297 513 281 513 q 418 569 374 513 q 462 707 462 626 q 436 805 462 764 q 356 846 410 846 q 266 800 293 846 q 227 680 239 754 l 203 661 q 115 805 172 734 q 236 884 168 858 q 384 910 303 910 q 585 865 497 910 q 673 718 673 821 q 604 559 673 615 q 424 482 535 503 l 422 469 q 566 400 513 450 q 620 264 620 350 q 523 50 620 122 q 279 -22 426 -22 q 106 3 183 -22 q -16 94 29 29 q 48 181 24 147 q 101 254 73 215 l 125 248 "},"9":{"x_min":40,"x_max":714,"ha":749,"o":"m 40 158 l 65 161 q 121 75 84 106 q 215 44 158 44 q 373 137 326 44 q 453 388 419 230 q 393 365 433 374 q 324 356 354 356 q 148 417 213 356 q 84 592 84 479 q 184 821 84 732 q 426 910 284 910 q 640 825 567 910 q 714 595 714 741 q 576 167 714 356 q 208 -21 438 -21 q 138 -16 174 -21 q 65 -1 102 -11 q 40 158 48 76 m 513 710 q 494 802 513 764 q 427 841 476 841 q 329 747 360 841 q 298 567 298 654 q 322 467 298 498 q 385 437 346 437 q 468 495 439 437 q 504 620 497 553 q 513 710 513 666 "},"l":{"x_min":-8.328125,"x_max":419.4375,"ha":392,"o":"m 193 1025 q 309 1018 251 1018 q 349 1018 330 1018 q 419 1025 368 1019 q 299 505 352 768 q 211 0 245 242 q 145 3 184 0 q 101 6 106 6 q 37 3 76 6 q -8 0 -1 0 q 113 527 54 234 q 193 1025 172 820 "},"κ":{"x_min":-8.71875,"x_max":801,"ha":742,"o":"m 301 382 l 449 506 q 514 563 477 528 q 616 667 552 599 q 662 661 638 664 q 706 658 687 658 q 748 661 724 658 q 792 667 773 664 l 801 657 q 641 542 714 600 q 473 403 567 485 q 653 0 553 197 q 578 3 627 0 q 523 6 530 6 q 454 3 496 6 q 405 0 411 0 q 356 149 385 65 q 298 306 327 233 l 258 306 q 227 135 241 219 q 205 0 213 51 l 110 5 q 41 2 89 5 q -8 0 -5 0 q 70 351 32 176 q 130 667 107 526 q 244 660 188 660 q 301 663 264 660 q 345 667 337 667 q 302 501 326 599 q 276 389 278 403 l 301 382 "},"4":{"x_min":4.5625,"x_max":718.453125,"ha":749,"o":"m 354 225 q 179 221 296 225 q 4 217 62 217 q 25 300 17 264 q 39 384 33 337 q 196 552 119 468 q 342 710 274 636 q 517 908 410 785 l 611 902 q 678 902 644 902 q 718 908 705 906 q 590 382 643 638 l 622 380 q 676 383 657 380 q 705 386 696 386 q 671 215 671 305 q 591 224 614 223 q 554 225 568 225 l 517 0 q 464 4 499 0 q 411 8 429 8 q 355 4 392 8 q 301 0 319 0 q 327 104 312 44 q 354 225 342 165 m 392 385 q 433 565 411 472 q 472 750 454 658 q 237 475 282 525 q 151 380 192 425 q 271 382 211 380 q 392 385 330 383 "},"p":{"x_min":-98,"x_max":755,"ha":828,"o":"m 299 573 q 393 652 345 623 q 497 681 442 681 q 686 612 618 681 q 755 422 755 544 q 663 123 755 261 q 418 -14 571 -14 q 220 101 284 -14 q 157 -144 189 -15 q 125 -374 125 -273 q 24 -366 75 -366 q -98 -375 -35 -366 q 24 146 -28 -105 q 120 665 78 398 q 183 659 154 662 q 227 656 211 656 q 270 659 245 656 q 317 665 295 662 l 299 573 m 542 472 q 516 558 542 519 q 444 597 490 597 q 301 469 349 597 q 254 219 254 341 q 280 130 254 169 q 351 92 306 92 q 454 150 419 92 q 515 305 489 209 q 539 413 536 395 q 542 472 542 430 "},"ψ":{"x_min":28,"x_max":1041,"ha":1113,"o":"m 490 -372 l 412 -363 q 280 -372 347 -363 q 330 -157 303 -288 q 362 -8 358 -26 q 124 80 221 8 q 28 286 28 152 q 30 339 28 318 q 46 427 33 361 l 76 574 l 89 670 q 197 665 137 665 q 243 665 218 665 q 315 670 269 666 q 248 436 272 538 q 224 236 224 333 q 265 117 224 162 q 380 61 307 73 l 429 311 q 485 605 469 518 q 512 803 501 693 l 591 794 q 722 803 655 794 q 655 518 690 686 q 614 309 621 351 l 566 53 q 775 164 707 53 q 844 427 844 275 q 836 522 844 473 q 809 658 828 572 q 1003 670 899 658 q 1030 569 1020 623 q 1041 468 1041 515 q 908 113 1041 241 q 550 -14 776 -14 q 516 -199 533 -102 q 490 -372 498 -297 "},"Ü":{"x_min":72,"x_max":1014,"ha":1006,"o":"m 305 923 q 426 932 363 923 q 361 704 394 822 q 306 472 327 586 q 285 259 285 358 q 333 140 285 183 q 458 97 382 97 q 585 119 529 97 q 691 201 641 142 q 775 387 740 260 q 833 661 811 513 q 873 932 855 808 q 944 925 912 925 q 1014 932 975 925 q 979 792 991 841 q 929 579 966 743 q 883 379 891 416 q 868 316 875 341 q 834 205 861 290 q 689 51 806 120 q 426 -18 572 -18 q 172 43 273 -18 q 72 250 72 105 q 95 438 72 304 q 146 716 119 573 q 181 932 173 859 q 305 923 243 923 m 540 1253 q 605 1225 577 1253 q 633 1159 633 1197 q 606 1092 633 1120 q 540 1065 580 1065 q 470 1091 498 1065 q 443 1159 443 1117 q 472 1225 443 1197 q 540 1253 501 1253 m 794 1253 q 861 1225 833 1253 q 889 1159 889 1197 q 861 1092 889 1119 q 794 1065 834 1065 q 726 1091 754 1065 q 699 1159 699 1117 q 727 1225 699 1198 q 794 1253 755 1253 "},"à":{"x_min":-9,"x_max":622.9375,"ha":714,"o":"m 175 -14 q 43 32 95 -14 q -9 159 -9 79 q 61 320 -9 267 q 220 382 132 372 q 366 401 307 392 q 419 486 419 417 q 386 561 419 536 q 300 586 353 586 q 135 505 198 586 l 119 501 q 139 611 134 558 q 266 662 203 643 q 389 682 328 682 q 549 635 483 682 q 615 500 615 588 q 609 454 612 476 q 601 409 606 432 l 560 232 q 544 162 552 198 q 536 95 536 126 q 552 68 536 79 q 585 57 567 57 q 606 59 595 57 q 622 63 617 61 l 620 15 q 493 -10 561 -10 q 353 88 385 -10 q 281 11 327 37 q 175 -14 235 -14 m 487 757 l 297 875 q 254 910 270 893 q 239 951 239 928 q 260 997 239 978 q 307 1017 281 1017 q 349 1003 331 1017 q 386 966 367 990 l 556 757 l 487 757 m 190 177 q 206 115 190 141 q 256 90 223 90 q 357 195 336 90 q 384 328 378 300 q 250 291 303 328 q 190 177 196 254 "},"η":{"x_min":-14,"x_max":733,"ha":810,"o":"m 126 666 q 176 663 142 666 q 226 661 209 661 q 290 663 245 661 q 336 666 334 666 q 321 620 324 633 q 312 580 317 608 q 423 653 362 626 q 546 681 484 681 q 680 640 627 681 q 733 519 733 599 q 727 461 733 492 q 713 398 721 430 l 656 155 q 597 -118 627 23 q 554 -373 567 -259 q 445 -365 501 -365 q 328 -373 385 -365 q 364 -240 345 -315 q 413 -25 383 -165 l 474 251 q 503 375 488 312 q 518 492 518 438 q 499 549 518 526 q 445 572 480 572 q 292 448 324 572 q 209 0 261 324 q 145 2 190 0 q 98 5 99 5 q 33 2 79 5 q -14 0 -11 0 q 58 317 26 162 q 126 666 90 472 "}}}
